<?xml version="1.0" standalone="no"?>
<!DOCTYPE svg PUBLIC "-//W3C//DTD SVG 20010904//EN"
 "http://www.w3.org/TR/2001/REC-SVG-20010904/DTD/svg10.dtd">
<svg version="1.0" xmlns="http://www.w3.org/2000/svg"
 width="3072.000000pt" height="3072.000000pt" viewBox="0 0 3072.000000 3072.000000"
 preserveAspectRatio="xMidYMid meet">
<metadata>
Created by potrace 1.10, written by Peter Selinger 2001-2011
</metadata>
<g transform="translate(0.000000,3072.000000) scale(0.100000,-0.100000)"
fill="#000000" stroke="none">
<path d="M0 30005 l0 -714 6743 2 6742 2 3 713 2 712 -6745 0 -6745 0 0 -715z"/>
<path d="M27 29242 l-27 -3 0 -2319 0 -2319 58 0 c70 0 88 5 98 27 5 9 11 933
14 2052 l5 2035 120 6 c66 4 1535 7 3265 8 1729 1 3148 5 3152 9 12 12 12 482
-1 495 -7 7 -1013 10 -3333 11 -1828 1 -3335 0 -3351 -2z"/>
<path d="M6770 29236 c-12 -12 -14 -493 -2 -500 4 -2 1440 -6 3191 -8 1750 -2
3187 -5 3191 -8 5 -3 11 -901 13 -1995 4 -1866 8 -2089 31 -2112 3 -3 56 -8
118 -10 124 -6 138 -12 138 -67 0 -17 4 -38 10 -46 7 -12 10 -11 17 5 4 11 8
1084 8 2385 l0 2365 -3353 0 c-2104 0 -3357 -4 -3362 -9z"/>
<path d="M206 28654 c-3 -9 -6 -168 -6 -354 0 -313 1 -340 18 -348 19 -10 555
-19 1627 -27 380 -3 731 -8 782 -11 l91 -6 74 -66 c40 -37 104 -96 143 -132
39 -36 89 -81 110 -100 22 -20 67 -60 100 -90 33 -30 96 -86 139 -125 44 -38
84 -75 90 -81 6 -5 63 -57 126 -114 119 -107 179 -162 288 -265 57 -53 154
-186 209 -285 10 -19 30 -53 44 -75 14 -22 37 -59 50 -82 13 -23 51 -86 84
-140 74 -122 105 -183 105 -205 0 -10 6 -35 14 -55 12 -35 22 -68 62 -203 12
-44 30 -111 60 -235 8 -33 21 -82 29 -110 7 -27 21 -79 30 -115 9 -36 23 -88
31 -116 8 -28 14 -58 14 -66 0 -9 6 -38 14 -64 19 -66 42 -154 62 -244 9 -41
23 -95 30 -119 8 -25 14 -53 14 -64 0 -11 6 -43 14 -71 8 -28 22 -87 31 -131
9 -44 21 -98 26 -120 48 -200 45 -167 30 -290 -6 -49 -18 -135 -26 -190 -8
-55 -21 -154 -30 -220 -9 -66 -23 -150 -31 -186 -8 -37 -14 -79 -14 -94 0 -15
-6 -66 -14 -114 -8 -47 -22 -140 -31 -206 -9 -66 -23 -156 -31 -200 -8 -44
-14 -96 -14 -115 0 -19 -4 -51 -10 -70 -5 -19 -14 -71 -19 -115 -20 -159 -41
-300 -47 -315 -3 -8 -9 -46 -14 -85 -11 -92 -36 -223 -50 -260 -6 -16 -59 -77
-118 -135 -124 -122 -622 -604 -797 -771 -121 -115 -384 -369 -506 -489 -36
-36 -107 -104 -157 -152 l-91 -88 -1253 0 c-689 0 -1259 -4 -1266 -8 -9 -6
-14 -153 -18 -659 -4 -358 -4 -663 0 -677 l6 -26 3249 0 c2711 0 3250 2 3260
13 8 10 11 593 11 2158 0 2111 0 2144 -19 2160 -13 10 -50 18 -108 23 -225 16
-441 124 -634 316 -163 161 -277 357 -310 530 -4 25 -13 61 -19 80 -6 19 -11
108 -12 196 -1 157 9 238 44 339 5 17 13 44 17 61 13 51 91 204 145 284 47 69
163 195 229 248 144 116 431 231 578 232 30 0 63 6 72 13 16 11 17 112 15
1527 l-3 1515 -3256 3 c-2963 2 -3257 1 -3263 -14z"/>
<path d="M6767 28663 c-4 -3 -7 -685 -7 -1514 0 -1357 2 -1509 16 -1523 11
-11 35 -16 80 -16 65 0 157 -17 245 -45 26 -8 52 -15 58 -15 6 0 41 -14 78
-32 230 -107 431 -304 548 -538 20 -41 42 -83 47 -94 16 -30 37 -104 58 -205
42 -198 19 -468 -55 -636 -78 -178 -151 -290 -266 -404 -192 -193 -384 -284
-674 -320 l-130 -16 -3 -2160 c-2 -1720 0 -2160 10 -2167 7 -4 1436 -8 3174
-8 2833 0 3163 2 3174 15 11 13 12 146 6 672 -4 362 -10 661 -12 665 -3 5
-499 8 -1102 8 l-1097 -1 -215 219 c-118 120 -336 344 -485 498 -148 153 -341
352 -429 441 -126 128 -168 178 -200 237 -33 61 -154 261 -238 394 -9 15 -23
37 -30 50 -7 12 -43 70 -79 130 -37 59 -74 134 -83 167 -16 56 -25 88 -57 205
-6 25 -17 70 -24 100 -7 30 -21 84 -29 120 -9 36 -20 81 -25 100 -5 19 -19 71
-31 115 -12 44 -26 96 -30 115 -14 65 -32 135 -46 175 -8 23 -14 49 -14 59 0
11 -6 42 -14 70 -8 28 -22 83 -31 121 -20 86 -42 174 -60 240 -49 177 -49 178
-31 283 19 112 41 221 62 309 8 34 14 72 14 85 0 12 6 52 14 88 8 36 22 103
31 150 9 47 21 105 27 130 6 25 14 65 18 90 4 25 13 72 19 105 7 33 19 98 27
145 9 47 21 110 29 140 7 30 20 87 29 125 32 148 48 210 56 220 9 12 99 185
298 575 160 315 166 326 200 380 12 19 279 293 594 609 l573 574 980 -7 c539
-3 1066 -9 1170 -12 122 -3 195 -2 205 5 12 8 15 67 16 388 1 208 -1 384 -3
391 -4 9 -649 12 -3177 12 -1745 0 -3176 -3 -3179 -7z"/>
<path d="M227 27891 c-16 -6 -18 -72 -23 -1227 -5 -1023 -4 -1223 7 -1230 15
-10 1529 -18 1567 -9 20 5 22 11 22 75 0 77 10 90 70 90 60 0 70 -13 70 -89
l0 -68 53 -7 c28 -3 260 -6 514 -6 l463 0 5 -27 c12 -54 7 -50 148 -120 372
-183 631 -600 652 -1049 13 -275 -40 -465 -188 -667 -45 -62 -212 -227 -229
-227 -4 0 -26 -13 -50 -29 -50 -33 -144 -81 -208 -106 -81 -30 -112 -49 -120
-71 -8 -20 -14 -21 -336 -27 -180 -3 -400 -3 -489 0 -89 3 -174 3 -188 -1 -26
-6 -27 -9 -27 -71 0 -72 -11 -85 -70 -85 -58 0 -70 14 -70 79 0 36 -5 63 -13
69 -16 13 -1545 15 -1566 3 -10 -7 -14 -224 -18 -1112 -3 -607 -2 -1213 2
-1346 l7 -243 1260 0 1260 0 107 108 c166 165 803 782 961 928 216 200 570
556 570 572 0 8 7 35 14 61 8 25 22 98 31 161 21 155 51 353 85 560 5 30 12
78 15 105 16 137 46 339 80 555 16 97 37 241 60 415 9 66 23 161 31 211 18
114 18 223 0 288 -27 97 -47 190 -76 349 -5 26 -13 62 -19 80 -11 36 -22 77
-81 317 -23 91 -45 186 -50 212 -5 26 -13 56 -19 67 -6 11 -11 30 -11 42 0 12
-6 45 -14 73 -8 28 -22 80 -31 116 -26 106 -65 246 -90 325 -6 22 -19 66 -28
98 -41 145 -56 179 -117 281 -36 60 -73 121 -82 135 -10 14 -22 35 -28 46 -13
24 -27 46 -63 102 -15 24 -27 45 -27 48 0 2 -24 38 -52 80 -29 42 -60 90 -69
108 -9 18 -45 56 -80 85 -65 55 -193 171 -314 282 -38 36 -90 83 -114 105 -24
22 -49 45 -55 51 -6 6 -56 50 -111 99 -100 89 -130 116 -234 211 -31 28 -91
83 -134 121 l-78 71 -297 6 c-163 3 -378 8 -477 11 -99 3 -486 7 -860 10 -374
3 -714 7 -755 9 -41 2 -83 1 -93 -3z"/>
<path d="M10203 27275 l-573 -578 -71 -136 c-64 -122 -146 -282 -375 -730 -41
-79 -74 -153 -74 -164 0 -11 -6 -43 -14 -71 -8 -28 -21 -82 -30 -121 -8 -38
-22 -100 -31 -136 -8 -36 -15 -74 -15 -85 0 -10 -7 -50 -16 -89 -25 -113 -52
-246 -90 -450 -8 -44 -21 -109 -29 -145 -7 -36 -21 -105 -30 -155 -9 -49 -23
-123 -32 -164 -20 -94 -20 -231 0 -301 26 -93 107 -419 137 -559 6 -25 14 -59
19 -75 6 -17 17 -60 26 -96 9 -36 22 -86 30 -111 8 -26 15 -55 15 -66 0 -11 6
-39 14 -64 14 -45 36 -127 62 -234 21 -82 42 -161 60 -216 7 -26 14 -54 14
-63 0 -17 25 -67 60 -121 11 -16 24 -39 30 -50 6 -11 18 -32 28 -47 20 -31
192 -310 207 -336 6 -9 22 -35 36 -57 14 -22 41 -67 59 -100 47 -85 45 -84
181 -223 68 -70 268 -276 445 -457 177 -182 403 -414 504 -517 l183 -188 1093
0 1094 0 2 23 c0 12 1 29 0 37 -1 8 -1 308 1 665 1 358 1 952 -1 1320 -3 622
-5 670 -21 676 -9 4 -344 4 -744 1 l-727 -5 0 -62 c0 -71 -10 -85 -63 -85 -65
0 -77 12 -77 80 0 32 -4 61 -10 65 -5 3 -228 5 -494 5 l-485 0 -15 27 c-9 18
-31 35 -63 47 -52 21 -236 109 -268 129 -188 117 -361 332 -424 527 -49 149
-51 163 -51 334 0 170 8 228 50 361 95 297 219 484 430 644 92 70 152 106 253
154 75 35 77 38 77 72 0 22 5 35 13 35 127 -5 970 9 977 16 5 5 10 38 12 74
l3 65 65 0 65 0 3 -70 c2 -40 8 -73 15 -77 17 -11 1449 -10 1466 1 13 8 15
177 17 1195 2 893 -1 1187 -9 1194 -7 5 -295 12 -672 16 -363 3 -887 9 -1165
12 l-505 6 -572 -577z"/>
<path d="M6615 25528 c-236 -36 -499 -177 -634 -339 -163 -195 -234 -355 -268
-604 -35 -257 26 -512 175 -735 70 -105 225 -250 337 -316 44 -26 166 -84 178
-84 6 0 29 -6 52 -14 75 -26 235 -51 253 -40 19 12 17 -113 20 1248 2 644 0
872 -9 882 -13 15 -16 15 -104 2z"/>
<path d="M6771 25527 c-8 -11 -10 -289 -9 -1073 l3 -1059 50 -3 c50 -3 160 16
246 43 26 8 52 15 59 15 20 0 200 90 251 126 215 151 353 356 435 644 26 89
27 399 2 475 -9 28 -19 61 -21 75 -15 72 -75 198 -142 300 -77 116 -179 216
-310 306 -98 66 -305 135 -450 149 -38 3 -77 8 -86 11 -9 2 -21 -2 -28 -9z"/>
<path d="M211 25033 c1 -137 4 -288 8 -338 l6 -90 290 -8 c160 -4 296 -10 303
-12 10 -4 12 -83 10 -372 l-3 -368 -295 -8 c-180 -4 -298 -11 -305 -18 -6 -6
-10 -109 -10 -292 l0 -282 1339 -3 c1031 -1 1342 1 1353 10 13 10 14 147 11
1007 -1 548 -7 1002 -11 1009 -6 9 -288 12 -1353 12 l-1344 0 1 -247z m2611
163 c17 -23 16 -25 -10 -63 -15 -21 -32 -48 -38 -59 -15 -26 -46 -29 -68 -5
-17 18 -16 21 9 61 14 22 30 52 35 65 12 32 49 32 72 1z m-1787 -297 c168 -38
310 -127 408 -258 71 -96 91 -140 113 -261 46 -249 -40 -490 -225 -636 -100
-80 -214 -122 -434 -161 -90 -15 -99 -15 -114 -1 -23 23 -9 48 26 48 47 0 218
36 304 65 289 94 447 382 381 695 -20 96 -62 179 -130 257 -54 61 -178 153
-206 153 -8 0 -18 4 -23 9 -17 15 -167 49 -252 56 -88 8 -120 22 -110 49 6 14
18 16 89 11 46 -4 124 -15 173 -26z m1633 -8 c12 -7 11 -20 -3 -80 -21 -83
-32 -96 -69 -80 -30 14 -32 26 -12 66 8 15 21 45 30 66 16 37 29 44 54 28z
m-86 -421 c-4 -82 -17 -106 -51 -95 -17 5 -21 14 -21 53 0 26 5 64 11 85 9 33
14 38 37 35 27 -3 27 -3 24 -78z m-8 -312 c3 -13 7 -43 11 -68 3 -25 8 -55 11
-67 7 -28 -31 -52 -51 -31 -29 31 -46 172 -22 181 28 12 47 6 51 -15z m86
-408 c6 -21 15 -42 20 -45 17 -11 11 -54 -9 -65 -11 -5 -22 -10 -24 -10 -9 0
-43 65 -57 109 -13 40 -13 44 4 57 27 19 53 1 66 -46z m144 -326 c39 -59 40
-76 7 -94 -18 -9 -26 -4 -66 47 -25 32 -45 61 -45 65 0 13 32 38 49 38 11 0
33 -23 55 -56z"/>
<path d="M10552 24263 l3 -1018 1280 0 1280 0 3 291 2 291 -112 6 c-62 4 -195
7 -295 7 l-183 0 0 373 0 374 167 6 c91 4 220 7 285 7 117 0 119 0 128 25 7
18 15 509 10 643 0 9 -264 12 -1285 12 l-1285 0 2 -1017z m170 920 c14 -21 32
-52 42 -70 l16 -32 -31 -16 c-17 -9 -32 -15 -33 -13 -1 2 -19 28 -39 58 -39
58 -44 79 -25 98 21 21 45 13 70 -25z m1833 -274 c0 -21 -7 -25 -55 -36 -30
-6 -71 -12 -90 -12 -41 -1 -207 -53 -254 -79 -197 -109 -316 -310 -316 -538 0
-172 48 -290 167 -408 117 -116 252 -172 493 -204 50 -7 55 -10 55 -32 0 -16
-6 -26 -19 -28 -25 -5 -200 26 -249 44 -20 8 -45 14 -53 14 -9 0 -58 20 -109
45 -260 128 -396 429 -326 722 64 270 251 445 541 507 86 18 190 34 205 31 6
-1 10 -13 10 -26z m-1709 -26 c3 -10 10 -26 15 -35 5 -10 15 -36 23 -58 11
-33 11 -41 0 -51 -25 -21 -55 -6 -71 36 -30 84 -33 98 -22 112 16 19 49 16 55
-4z m80 -331 c15 -9 32 -147 22 -167 -11 -18 -39 -20 -56 -3 -17 17 -16 165 1
171 17 8 21 8 33 -1z m16 -452 c-4 -102 -8 -112 -40 -108 -27 3 -27 3 -23 78
4 88 14 112 44 108 21 -3 22 -7 19 -78z m-73 -299 c15 -10 12 -29 -14 -101
-22 -61 -39 -78 -60 -60 -18 15 -13 68 12 133 15 37 34 46 62 28z m-128 -331
c10 -6 19 -18 19 -27 0 -18 -68 -133 -78 -133 -17 1 -42 29 -42 47 0 22 60
122 73 123 5 0 17 -5 28 -10z"/>
<path d="M10395 25216 c-22 -12 -56 -31 -75 -41 -70 -40 -188 -135 -249 -201
-269 -294 -388 -748 -285 -1089 56 -184 171 -349 323 -464 99 -74 289 -170
339 -171 16 0 13 1982 -3 1986 -5 1 -28 -8 -50 -20z"/>
<path d="M3002 24244 c3 -930 4 -989 20 -992 19 -4 156 60 250 116 71 42 184
145 243 222 116 151 195 378 195 562 0 103 -42 326 -76 406 -8 18 -14 40 -14
48 0 9 -6 28 -14 42 -8 15 -24 47 -36 72 -65 135 -183 281 -300 372 -72 56
-201 129 -237 135 l-33 6 2 -989z"/>
<path d="M456 24539 c-110 -5 -204 -13 -210 -19 -7 -7 -4 -54 8 -142 20 -141
18 -204 -7 -368 -9 -55 -11 -99 -6 -104 5 -6 121 -10 266 -10 l258 -1 0 325 0
325 -55 1 c-30 1 -145 -2 -254 -7z"/>
<path d="M12591 24531 c-7 -13 -11 -127 -11 -320 0 -263 2 -302 16 -316 9 -9
23 -14 30 -11 7 3 112 6 233 7 148 1 225 5 235 13 13 9 14 23 6 85 -12 89 -15
418 -5 482 5 36 4 47 -8 52 -8 3 -91 8 -183 12 -93 3 -199 8 -236 11 -59 5
-68 3 -77 -15z"/>
<path d="M13449 23883 l-14 -48 -122 -3 c-97 -2 -124 -6 -135 -19 -11 -13 -14
-420 -16 -2406 -2 -1315 -1 -2401 3 -2414 l6 -24 157 3 157 3 0 2467 c0 1737
-3 2470 -11 2478 -7 7 -15 -3 -25 -37z"/>
<path d="M0 21400 l0 -2430 73 0 c43 0 78 5 85 12 9 9 12 518 12 2228 0 1218
-3 2306 -7 2418 l-6 202 -79 0 -78 0 0 -2430z"/>
<path d="M0 18065 l0 -855 6743 2 6742 3 0 850 0 850 -6742 3 -6743 2 0 -855z"/>
</g>
</svg>
