 <svg  version="1.0" xmlns="http://www.w3.org/2000/svg"  width="900.000000pt" height="885.000000pt" viewBox="0 0 900.000000 885.000000"  preserveAspectRatio="xMidYMid meet">  <g transform="translate(0.000000,885.000000) scale(0.100000,-0.100000)" fill="#ffffff" stroke="none"> <path d="M4045 8835 c-7 -10 -45 -17 -130 -24 -151 -13 -275 -33 -480 -77 -151 -33 -368 -93 -433 -120 -18 -8 -39 -14 -47 -14 -8 0 -29 -6 -47 -14 -18 -8 -51 -21 -73 -29 -388 -144 -783 -360 -1110 -606 -261 -196 -569 -488 -740 -702 -243 -303 -397 -541 -542 -834 -64 -128 -77 -156 -106 -225 -8 -19 -21 -51 -29 -70 -18 -41 -45 -110 -63 -160 -30 -86 -37 -107 -45 -135 -4 -16 -12 -41 -18 -55 -5 -14 -18 -54 -27 -90 -10 -36 -23 -85 -30 -110 -41 -150 -96 -452 -112 -620 -10 -110 -10 -950 0 -1060 23 -242 108 -654 172 -830 7 -19 22 -64 34 -100 11 -36 30 -90 41 -120 12 -30 26 -69 31 -87 5 -18 14 -35 19 -38 6 -4 10 -13 10 -21 0 -21 114 -263 188 -399 189 -348 448 -697 726 -979 221 -224 504 -454 754 -611 35 -22 75 -48 90 -57 15 -10 36 -22 47 -28 11 -6 47 -26 80 -45 55 -32 349 -179 420 -210 203 -88 515 -193 715 -239 445 -103 752 -133 1250 -123 310 7 479 17 595 36 39 6 113 19 165 27 165 27 338 68 510 121 191 58 353 116 495 178 71 31 365 178 420 210 33 19 69 39 80 45 11 6 32 18 47 28 15 9 55 35 90 57 256 161 537 390 767 624 269 274 520 613 705 951 78 143 196 392 196 414 0 8 4 17 10 21 5 3 14 20 19 38 5 18 19 57 31 87 11 30 30 84 41 120 12 36 27 81 34 100 66 183 155 618 170 830 4 58 10 89 20 96 13 10 15 73 15 434 0 361 -2 424 -15 434 -10 7 -16 38 -20 96 -10 148 -66 459 -110 620 -7 25 -20 74 -30 110 -9 36 -23 81 -30 100 -28 79 -37 106 -45 135 -5 17 -18 55 -30 85 -12 30 -25 67 -30 81 -4 14 -12 34 -17 45 -6 10 -17 36 -26 57 -79 182 -174 367 -276 535 -215 357 -429 620 -757 933 -235 223 -565 463 -874 633 -65 36 -309 156 -365 180 -16 7 -46 20 -65 28 -35 16 -92 38 -165 65 -22 8 -55 21 -73 29 -18 8 -39 14 -47 14 -8 0 -29 6 -47 14 -40 17 -187 61 -303 90 -219 55 -431 92 -610 107 -86 7 -123 14 -131 24 -17 22 -874 23 -889 0z m810 -230 c120 -14 195 -24 350 -49 17 -3 59 -12 95 -20 36 -8 97 -21 135 -29 39 -9 93 -22 120 -31 28 -8 68 -20 90 -26 22 -6 49 -15 60 -19 11 -5 49 -19 85 -31 36 -12 79 -29 97 -36 17 -8 35 -14 41 -14 9 0 130 -46 202 -77 56 -24 279 -135 355 -178 215 -118 559 -344 641 -420 6 -5 26 -23 45 -39 163 -141 329 -300 393 -376 16 -19 54 -64 86 -100 32 -36 84 -99 116 -140 32 -41 62 -79 67 -85 4 -5 27 -37 51 -70 221 -309 384 -603 515 -930 5 -11 16 -37 25 -58 9 -21 16 -43 16 -50 0 -7 6 -24 14 -39 8 -15 17 -41 21 -59 4 -19 11 -40 16 -49 4 -8 15 -42 24 -75 10 -33 23 -80 30 -105 39 -128 81 -349 113 -585 25 -188 25 -840 -1 -1035 -27 -207 -60 -388 -92 -505 -9 -33 -23 -85 -30 -115 -26 -103 -38 -145 -45 -155 -4 -5 -11 -26 -15 -45 -4 -19 -11 -39 -15 -45 -4 -5 -15 -35 -24 -65 -10 -30 -24 -68 -31 -85 -84 -188 -115 -256 -163 -351 -53 -108 -92 -177 -140 -254 -23 -36 -58 -92 -79 -125 -30 -48 -156 -227 -190 -270 -5 -5 -16 -22 -26 -37 -60 -95 -379 -432 -551 -584 -78 -68 -277 -219 -398 -302 -91 -62 -200 -132 -206 -132 -2 0 -30 -15 -61 -34 -31 -19 -82 -48 -113 -65 -31 -16 -65 -35 -75 -40 -23 -12 -134 -63 -198 -91 -76 -32 -86 -36 -145 -60 -30 -11 -64 -25 -75 -30 -24 -10 -176 -60 -260 -85 -33 -9 -78 -23 -100 -30 -66 -22 -193 -51 -350 -81 -289 -56 -565 -77 -885 -69 -375 9 -518 26 -840 99 -175 40 -278 68 -395 109 -55 19 -143 49 -195 67 -125 42 -197 74 -420 183 -212 104 -514 290 -665 410 -33 26 -76 60 -95 75 -122 95 -351 316 -464 447 -98 114 -105 122 -166 200 -30 39 -57 72 -60 75 -7 6 -68 87 -88 116 -83 124 -155 241 -211 344 -29 52 -163 322 -181 365 -5 11 -18 43 -30 70 -12 28 -25 59 -30 70 -4 11 -18 47 -30 80 -13 33 -26 69 -31 80 -35 91 -101 330 -135 490 -67 321 -79 454 -79 895 0 435 14 595 78 880 8 36 20 90 27 120 6 30 15 66 20 80 4 14 18 59 31 100 45 150 111 338 149 425 5 11 19 43 30 70 25 58 112 232 159 320 40 73 162 278 170 285 3 3 24 32 46 65 50 77 175 244 234 315 82 98 95 113 161 184 90 99 174 182 251 252 36 32 83 75 105 95 40 36 279 215 370 277 87 59 187 122 193 122 4 0 24 12 46 27 22 15 58 37 80 49 22 11 67 36 100 54 134 74 326 165 371 176 13 3 27 10 30 15 3 5 13 9 22 9 9 0 30 7 46 15 15 8 33 15 38 15 6 0 24 6 41 14 110 49 525 166 588 166 9 0 39 6 65 14 57 17 150 31 328 51 71 8 131 17 134 20 13 12 534 4 667 -10z"/> <path d="M4239 8430 c-69 -4 -148 -12 -175 -18 -27 -6 -80 -13 -119 -16 -38 -4 -90 -11 -115 -16 -25 -5 -67 -14 -95 -19 -59 -11 -135 -29 -333 -80 -23 -6 -50 -15 -60 -20 -9 -5 -51 -19 -92 -31 -41 -13 -79 -27 -85 -31 -5 -5 -15 -9 -23 -9 -8 0 -28 -6 -45 -14 -18 -7 -52 -21 -77 -31 -25 -9 -58 -23 -75 -30 -16 -8 -52 -24 -80 -35 -27 -12 -104 -49 -170 -83 -66 -33 -133 -67 -150 -75 -16 -9 -55 -32 -85 -52 -31 -20 -62 -39 -70 -44 -85 -42 -407 -271 -496 -353 -16 -15 -52 -46 -80 -68 -76 -61 -310 -298 -415 -420 -132 -154 -279 -351 -279 -375 0 -4 -3 -10 -7 -12 -19 -8 -108 -152 -212 -343 -82 -150 -89 -163 -121 -240 -12 -27 -27 -63 -34 -80 -8 -16 -28 -70 -46 -120 -18 -49 -36 -99 -40 -110 -5 -11 -18 -54 -30 -95 -13 -41 -26 -84 -31 -95 -5 -11 -14 -40 -19 -65 -6 -25 -18 -72 -26 -105 -53 -207 -84 -425 -105 -738 -13 -182 -1 -526 22 -692 29 -198 40 -267 54 -340 9 -44 20 -105 26 -135 10 -53 33 -136 49 -175 5 -11 16 -45 24 -75 24 -80 88 -253 98 -265 4 -5 8 -15 8 -22 0 -33 171 -379 269 -543 41 -69 77 -127 80 -130 3 -3 11 -13 16 -22 22 -36 105 -155 123 -173 10 -11 23 -28 28 -36 10 -19 48 -66 155 -193 116 -139 328 -349 444 -441 27 -22 56 -46 64 -53 63 -60 316 -233 491 -336 63 -37 122 -71 130 -76 54 -33 295 -146 395 -185 66 -25 134 -53 152 -61 17 -8 36 -14 42 -14 6 0 19 -4 29 -9 9 -5 49 -19 87 -30 39 -12 84 -25 100 -30 17 -5 71 -19 120 -31 50 -11 105 -25 122 -31 60 -19 263 -55 428 -76 98 -13 212 -17 460 -18 371 0 506 10 755 57 30 5 78 14 105 19 28 5 59 13 70 18 11 4 43 13 70 19 28 5 75 17 105 26 30 9 72 21 93 27 21 5 45 13 55 18 9 5 51 19 92 31 41 13 79 27 85 31 5 5 15 9 23 9 13 0 41 11 117 45 17 7 48 21 70 30 102 43 302 145 425 218 124 74 268 165 280 177 3 3 23 18 46 33 22 15 49 35 60 45 10 9 50 41 88 71 284 221 603 558 776 821 8 12 20 28 25 34 20 21 119 172 169 256 64 107 159 299 226 455 38 87 50 119 73 180 31 83 48 135 76 235 12 41 26 90 32 107 6 18 14 54 19 80 5 27 15 82 23 123 9 41 20 104 26 140 6 36 15 90 21 120 45 251 45 942 0 1150 -5 25 -14 70 -20 100 -33 166 -40 200 -53 255 -9 33 -23 85 -32 115 -9 30 -20 69 -24 85 -10 36 -62 190 -89 260 -51 135 -164 375 -229 490 -141 247 -290 472 -404 610 -9 11 -52 63 -95 115 -110 132 -333 353 -449 445 -27 22 -52 43 -55 46 -15 18 -222 166 -325 233 -66 43 -132 87 -147 97 -15 11 -30 19 -33 19 -3 0 -23 11 -45 25 -57 36 -140 81 -255 137 -161 79 -225 108 -335 148 -129 48 -376 130 -423 140 -124 28 -175 39 -207 48 -75 20 -214 41 -410 62 -124 12 -455 18 -601 10z m562 -330 c261 -29 332 -43 664 -130 43 -12 201 -65 265 -90 30 -12 66 -25 80 -29 55 -18 391 -181 475 -231 28 -16 59 -34 70 -40 11 -6 32 -18 47 -28 15 -9 55 -35 90 -56 229 -143 580 -452 792 -696 259 -298 442 -590 611 -975 105 -239 173 -474 239 -820 33 -172 50 -540 36 -775 -15 -264 -26 -358 -45 -387 l-17 -25 -227 7 c-124 4 -230 11 -235 15 -8 8 11 18 161 85 69 30 77 43 93 140 13 78 13 152 0 160 -6 4 -24 -5 -40 -19 -34 -28 -170 -99 -177 -92 -3 2 0 13 5 23 5 10 12 39 16 65 8 51 31 77 138 153 31 22 62 50 67 63 6 13 11 72 11 133 0 132 -9 142 -69 77 -22 -25 -63 -57 -91 -72 l-50 -27 0 76 0 75 89 88 c48 48 93 97 100 109 8 16 7 39 -3 95 -8 40 -18 94 -21 121 -9 65 -31 63 -85 -10 -55 -75 -101 -123 -111 -118 -14 10 -22 151 -9 176 15 30 102 143 112 147 5 2 15 17 24 34 14 27 13 34 -7 91 -47 132 -73 187 -89 187 -5 0 -12 -9 -15 -21 -4 -11 -24 -47 -46 -79 -21 -33 -39 -63 -39 -69 0 -11 -28 -41 -39 -41 -15 0 -31 155 -20 194 10 37 74 152 90 162 26 16 -24 150 -93 247 -22 31 -46 35 -54 10 -10 -33 -46 -128 -64 -168 l-17 -39 -32 68 c-47 101 -41 158 27 266 12 19 22 45 22 57 0 37 -119 203 -145 203 -7 0 -21 -21 -31 -47 -10 -27 -21 -52 -25 -58 -4 -5 -11 -26 -16 -45 -16 -60 -37 -49 -67 32 -25 66 -26 76 -15 122 7 27 21 65 31 83 20 32 20 33 0 60 -29 40 -134 139 -154 146 -24 9 -38 -21 -38 -82 0 -59 -26 -121 -51 -121 -9 0 -22 -7 -29 -15 -10 -11 -6 -25 19 -71 17 -32 29 -60 26 -62 -3 -3 -28 0 -56 6 -63 15 -164 16 -190 2 -29 -16 -23 -40 20 -87 22 -24 56 -62 76 -85 l36 -43 117 3 c106 3 120 2 143 -17 28 -22 101 -136 92 -144 -2 -3 -26 1 -51 8 -66 18 -189 28 -197 16 -3 -6 11 -42 32 -81 89 -166 80 -159 193 -166 125 -8 157 -23 192 -94 33 -65 36 -94 11 -86 -64 20 -172 46 -195 46 -34 0 -36 -17 -9 -98 45 -131 41 -127 128 -147 145 -34 185 -61 216 -145 31 -83 30 -83 -108 -30 -145 56 -147 55 -121 -58 9 -37 18 -79 21 -94 6 -30 37 -51 111 -73 81 -24 134 -62 155 -112 17 -41 26 -113 14 -113 -3 0 -13 4 -23 10 -9 5 -33 16 -52 24 -19 8 -56 24 -82 35 -50 22 -74 26 -82 13 -3 -5 0 -55 6 -111 11 -94 13 -104 35 -112 69 -26 142 -66 172 -95 31 -28 35 -39 39 -94 5 -73 -5 -88 -40 -60 -14 11 -36 24 -49 30 -28 12 -51 25 -97 59 -19 13 -37 19 -42 15 -4 -5 -10 -60 -12 -123 l-3 -113 53 -29 c66 -35 112 -73 135 -112 17 -28 18 -37 7 -89 -7 -32 -16 -58 -21 -58 -16 0 -104 65 -145 107 -39 39 -43 41 -57 25 -22 -25 -40 -126 -32 -183 l7 -50 -119 3 c-133 3 -127 -2 -105 88 88 361 97 771 26 1110 -22 106 -43 184 -71 265 -14 39 -28 84 -33 100 -19 74 -117 278 -193 405 -97 161 -177 268 -293 392 -30 32 -54 67 -54 76 0 10 23 35 50 57 28 22 50 47 50 55 0 24 -118 143 -264 268 -112 95 -326 224 -471 284 -177 73 -250 95 -425 126 -104 18 -105 19 -109 48 -3 29 18 230 44 404 22 147 27 237 16 245 -11 6 -157 -101 -350 -254 l-94 -75 -29 34 c-16 19 -34 45 -41 57 -35 64 -115 191 -261 416 -68 105 -79 117 -93 105 -14 -11 -55 -69 -98 -139 -5 -9 -30 -49 -55 -88 -25 -40 -51 -82 -58 -94 -7 -12 -21 -34 -30 -49 -9 -14 -44 -70 -77 -123 -32 -54 -65 -99 -72 -102 -7 -3 -38 15 -70 39 -202 155 -378 279 -392 276 -18 -4 -19 -17 -2 -140 18 -143 33 -258 42 -338 22 -193 22 -199 8 -204 -8 -2 -59 -11 -114 -21 -99 -17 -135 -26 -250 -64 -124 -41 -265 -99 -317 -131 -18 -11 -40 -23 -48 -27 -34 -16 -119 -70 -175 -112 -125 -93 -355 -310 -355 -335 0 -7 27 -35 60 -61 33 -26 60 -52 60 -58 0 -5 -29 -39 -63 -75 -170 -179 -316 -408 -442 -697 -79 -181 -124 -341 -176 -625 -21 -116 -24 -507 -5 -655 18 -133 40 -260 57 -329 7 -23 7 -42 1 -48 -5 -5 -58 -7 -117 -6 l-109 3 3 63 c2 62 -20 155 -41 168 -5 3 -24 -7 -41 -23 -61 -58 -147 -115 -162 -109 -11 4 -15 22 -15 75 0 69 0 70 42 106 24 20 66 50 95 67 28 16 56 34 61 41 11 13 2 210 -10 222 -6 6 -137 -59 -182 -91 -41 -28 -49 -19 -44 51 6 90 36 121 180 184 26 12 49 24 51 28 3 5 8 54 12 111 6 94 5 102 -12 102 -20 0 -108 -34 -172 -67 -24 -13 -46 -21 -49 -19 -9 10 10 105 28 133 20 33 100 76 163 88 47 9 97 54 97 88 0 13 7 44 15 67 19 53 19 89 1 96 -7 3 -62 -11 -121 -31 -59 -20 -109 -34 -112 -31 -11 11 19 104 43 129 30 32 105 66 164 74 69 9 93 26 113 80 10 26 25 59 32 73 7 14 16 42 20 63 7 35 6 37 -18 37 -13 0 -49 -7 -78 -16 -30 -9 -73 -22 -96 -29 -53 -15 -54 -9 -13 78 39 82 64 97 183 104 74 4 96 10 115 26 12 11 22 24 22 28 0 5 21 42 46 84 59 98 57 111 -21 107 -53 -3 -99 -11 -157 -28 -29 -8 -22 19 21 83 59 88 55 87 187 80 110 -5 116 -4 134 16 10 12 39 47 65 77 91 106 88 130 -15 130 -38 0 -90 -5 -115 -12 -24 -7 -48 -9 -52 -5 -4 4 3 27 16 50 26 48 25 77 -4 92 -55 28 -62 39 -70 105 -8 74 -19 100 -41 100 -8 0 -46 -32 -84 -71 -74 -76 -87 -110 -56 -154 7 -11 20 -43 28 -72 l16 -52 -37 -62 c-37 -64 -61 -85 -61 -52 0 10 -6 30 -14 45 -8 15 -17 39 -20 55 -4 15 -15 39 -26 53 -18 24 -19 24 -39 6 -39 -35 -121 -166 -121 -193 0 -14 10 -40 23 -57 12 -17 33 -53 46 -80 28 -58 25 -116 -11 -191 -22 -47 -48 -70 -48 -43 0 7 -7 25 -14 40 -8 16 -25 57 -37 93 -16 48 -26 65 -38 63 -28 -6 -131 -180 -131 -223 0 -14 17 -49 39 -79 67 -91 81 -140 61 -215 -5 -20 -12 -54 -15 -76 l-7 -39 -19 24 c-10 14 -19 29 -19 33 0 12 -88 145 -101 153 -22 13 -62 -70 -95 -195 -16 -58 -11 -74 38 -123 12 -12 36 -44 55 -72 31 -48 33 -56 33 -138 0 -48 -4 -89 -8 -92 -9 -5 -69 60 -127 137 -28 37 -29 38 -47 20 -12 -12 -23 -50 -33 -108 -23 -142 -26 -133 74 -233 85 -85 89 -91 96 -143 4 -30 5 -67 3 -81 l-3 -27 -60 45 c-33 25 -72 59 -87 76 -17 19 -32 28 -42 25 -13 -5 -16 -26 -16 -124 0 -139 1 -142 98 -206 98 -66 109 -81 117 -159 4 -38 3 -68 -1 -68 -11 0 -119 65 -153 91 -27 22 -47 24 -53 7 -10 -25 9 -214 23 -237 11 -19 142 -91 164 -91 20 0 96 -43 89 -50 -5 -5 -113 -12 -240 -15 l-232 -8 -16 25 c-10 16 -20 64 -26 129 -5 57 -15 154 -21 214 -25 236 7 687 68 960 36 164 93 371 119 433 8 18 14 41 14 50 0 10 4 22 8 28 5 5 19 38 32 74 44 124 186 413 267 542 13 21 23 40 23 42 0 13 255 374 279 396 4 3 38 43 78 90 194 230 500 495 809 701 118 79 125 83 212 131 360 196 624 301 957 381 413 99 795 128 1156 87z m-301 -567 c11 -21 29 -51 40 -68 11 -16 24 -39 29 -50 12 -28 108 -185 160 -262 l42 -63 53 0 c44 0 57 4 77 26 13 14 46 45 73 67 l49 41 -7 -34 c-4 -19 -12 -73 -19 -120 l-12 -85 -508 -3 c-401 -2 -508 0 -511 10 -13 41 -38 209 -33 215 4 3 36 -21 71 -55 63 -61 65 -62 121 -62 53 0 57 1 71 33 17 37 18 37 104 181 36 59 76 126 89 149 48 83 71 117 81 117 5 0 19 -17 30 -37z m-662 -753 c91 -29 164 -67 218 -114 49 -43 56 -76 16 -76 -26 0 -111 -31 -155 -58 -49 -28 -68 -28 -116 3 -66 41 -64 49 22 99 34 20 45 32 38 39 -17 17 -470 15 -500 -1 -30 -18 -18 -30 64 -62 128 -50 240 -150 340 -304 112 -172 140 -249 200 -556 26 -133 50 -211 81 -266 30 -54 118 -154 134 -154 14 0 12 31 -5 80 -15 43 -20 92 -9 102 3 4 38 -9 77 -26 133 -61 143 -57 78 28 -51 68 -97 153 -106 194 -5 26 -4 32 11 32 35 0 182 -79 204 -110 27 -37 37 -37 69 -1 33 37 180 110 224 111 25 0 -31 -120 -98 -210 -23 -30 -44 -63 -48 -73 -5 -15 -2 -16 21 -11 15 4 34 10 43 15 26 13 103 39 117 39 16 0 8 -80 -14 -144 -17 -47 -17 -46 0 -46 7 0 30 18 50 41 93 102 162 255 177 394 5 44 14 91 19 105 4 14 11 42 15 64 3 21 10 46 15 55 4 9 16 39 25 66 69 199 154 337 282 455 66 61 160 118 227 138 38 11 43 27 14 43 -26 15 -374 19 -442 5 -37 -7 -38 -8 -20 -24 11 -10 31 -25 47 -35 42 -27 37 -37 -40 -100 -21 -17 -24 -16 -117 28 -53 25 -105 45 -115 45 -64 0 -67 36 -8 84 46 37 122 74 222 109 50 17 86 20 225 21 173 0 175 0 340 -59 130 -47 341 -163 415 -229 41 -37 34 -56 -12 -33 -44 22 -152 41 -228 41 -202 -2 -365 -66 -500 -199 -118 -116 -177 -220 -224 -400 -25 -92 -39 -285 -21 -285 7 0 41 25 75 55 78 68 187 127 285 153 82 22 258 52 304 52 l29 0 -6 -97 c-13 -189 -73 -326 -190 -435 -55 -50 -159 -100 -307 -148 -144 -47 -176 -61 -246 -112 -61 -44 -97 -85 -128 -147 -45 -88 -72 -250 -45 -266 6 -4 20 2 32 12 23 20 74 43 141 64 21 6 56 27 77 46 36 33 39 40 39 88 0 61 6 68 76 85 83 21 88 16 81 -93 -7 -112 -36 -186 -104 -258 -45 -48 -116 -89 -155 -89 -29 0 -32 -25 -9 -93 50 -150 43 -337 -17 -470 -18 -40 -37 -67 -44 -65 -6 2 -19 31 -28 63 -26 93 -37 87 -61 -30 -7 -33 -32 -99 -57 -148 -50 -100 -113 -163 -215 -218 -55 -29 -71 -33 -137 -32 -59 0 -87 5 -130 25 -74 34 -150 96 -199 160 -45 61 -99 182 -107 242 -14 104 -22 107 -48 19 -10 -32 -20 -65 -22 -73 -11 -33 -59 53 -96 170 -27 86 -22 236 12 325 12 33 24 74 27 90 4 29 2 31 -55 48 -140 43 -232 189 -232 366 0 67 15 78 83 60 51 -14 52 -15 58 -59 4 -25 14 -58 23 -74 17 -33 86 -84 125 -92 45 -10 104 -35 129 -55 35 -27 42 -24 42 18 0 135 -53 267 -137 342 -74 66 -142 101 -307 156 -169 56 -238 93 -316 169 -108 104 -155 212 -166 385 -6 100 -5 111 11 117 18 7 238 -27 321 -50 108 -30 212 -89 292 -166 24 -23 49 -39 55 -37 36 12 7 236 -48 377 -41 103 -47 116 -109 208 -151 228 -446 344 -716 282 -52 -12 -108 -24 -125 -27 l-30 -5 30 31 c58 63 228 163 363 215 97 37 120 45 182 60 90 22 128 25 265 20 82 -3 140 -10 183 -24z m937 -305 c74 -16 195 -73 195 -93 0 -22 -38 -98 -56 -113 -13 -10 -21 -10 -47 3 -34 18 -97 39 -164 57 -52 14 -58 24 -42 64 24 62 50 98 68 93 9 -3 30 -8 46 -11z m-523 -50 c36 -65 33 -87 -12 -98 -70 -16 -145 -41 -165 -54 -11 -7 -27 -13 -36 -13 -19 0 -81 96 -77 118 4 18 52 46 122 72 115 42 133 39 168 -25z m524 -278 c73 -29 83 -44 62 -94 -9 -21 -19 -50 -22 -65 -7 -32 -39 -37 -84 -14 -15 7 -49 17 -76 21 -69 10 -76 14 -76 44 0 34 29 123 44 134 16 11 86 -1 152 -26z m-433 -32 c11 -27 20 -63 21 -80 1 -29 -1 -30 -64 -42 -36 -6 -85 -19 -109 -28 -24 -9 -47 -12 -51 -8 -15 19 -41 114 -38 140 3 25 11 31 68 50 38 13 84 22 110 20 43 -2 45 -3 63 -52z m-1685 -419 c51 -26 71 -98 42 -151 -7 -13 -30 -31 -51 -39 -35 -14 -43 -14 -79 0 -48 20 -60 38 -60 96 0 47 10 65 50 92 30 20 62 20 98 2z m3738 -11 c42 -32 53 -79 29 -128 -26 -55 -94 -74 -154 -42 -34 17 -41 33 -41 87 0 34 6 46 36 74 44 42 83 44 130 9z m-3981 -591 c57 -37 54 -149 -5 -179 -77 -40 -159 7 -160 91 0 57 46 104 102 104 21 0 50 -7 63 -16z m723 -13 c27 -25 32 -37 32 -73 0 -53 -20 -83 -66 -103 -31 -13 -40 -13 -71 0 -50 21 -62 42 -63 102 0 46 3 54 33 77 45 36 93 35 135 -3z m2787 11 c66 -57 54 -157 -21 -182 -109 -36 -188 79 -113 165 26 30 37 35 73 35 24 -1 49 -8 61 -18z m720 0 c27 -23 55 -68 55 -88 0 -33 -40 -83 -77 -95 -73 -24 -143 24 -143 100 0 46 59 101 108 101 20 -1 46 -8 57 -18z m-3100 -599 c8 -10 39 -45 69 -78 l55 -61 -26 -79 c-14 -44 -31 -96 -38 -115 -42 -114 -67 -318 -64 -524 1 -116 -1 -161 -10 -164 -36 -12 -428 193 -456 238 -3 6 26 46 65 91 62 70 112 139 157 214 14 24 139 278 158 320 17 39 41 113 49 148 7 31 20 34 41 10z m1907 -43 c20 -57 26 -75 53 -149 60 -165 217 -426 332 -551 13 -14 23 -27 23 -30 -1 -27 -139 -118 -295 -192 -33 -16 -71 -35 -85 -43 -14 -7 -38 -15 -54 -17 l-28 -3 -3 215 c-1 118 -8 237 -15 265 -6 28 -16 73 -21 100 -8 45 -18 81 -63 235 -7 25 -16 53 -20 62 -6 12 8 33 51 78 32 34 62 68 66 76 16 28 40 9 59 -46z m-3058 9 c25 -28 28 -38 23 -77 -7 -62 -43 -91 -113 -92 -57 0 -78 16 -94 69 -32 112 106 186 184 100z m695 7 c21 -21 26 -36 26 -75 0 -71 -30 -101 -99 -101 -35 1 -58 7 -73 19 -60 50 -47 152 22 182 35 15 96 3 124 -25z m2898 8 c11 -7 26 -29 33 -49 24 -73 -25 -135 -107 -135 -108 0 -132 169 -28 199 34 10 70 5 102 -15z m674 14 c49 -17 68 -45 69 -99 0 -37 -5 -50 -29 -73 -25 -24 -35 -27 -82 -24 -48 3 -56 6 -76 37 -13 19 -23 45 -23 58 0 39 29 83 63 98 40 18 37 17 78 3z m-2782 -660 c30 -177 105 -367 206 -523 63 -98 122 -138 90 -62 -17 42 -29 237 -16 257 14 21 25 6 50 -69 19 -56 58 -136 94 -196 39 -63 160 -215 172 -215 8 0 40 35 73 78 83 110 127 187 167 292 26 69 49 113 60 114 17 2 18 -160 0 -219 -17 -60 -19 -95 -6 -95 21 0 108 126 158 230 69 142 124 312 138 422 6 49 20 67 37 50 5 -5 17 -72 26 -148 13 -118 13 -160 3 -279 -11 -131 -19 -172 -58 -300 -40 -136 -111 -286 -182 -390 -62 -90 -81 -96 -81 -23 0 104 -35 167 -51 90 -13 -62 -121 -258 -197 -356 -42 -55 -82 -101 -89 -103 -13 -5 -111 121 -171 219 -46 75 -112 212 -112 232 0 7 -10 26 -21 40 -30 38 -39 20 -39 -74 0 -41 -4 -81 -8 -87 -13 -20 -135 153 -186 262 -10 22 -25 53 -32 68 -8 16 -14 35 -14 42 0 8 -6 29 -14 47 -17 40 -40 119 -61 210 -30 133 -18 444 22 578 9 29 29 -16 42 -92z m-1076 -282 c12 -7 54 -34 94 -60 40 -25 74 -46 77 -46 3 0 25 -14 50 -31 67 -45 248 -136 354 -179 51 -21 95 -40 98 -43 4 -3 -17 -17 -45 -32 -67 -34 -127 -88 -153 -139 -29 -56 -34 -211 -28 -805 l5 -476 24 -43 c31 -57 83 -97 155 -122 54 -18 85 -20 325 -20 359 0 435 18 516 124 42 55 56 119 61 265 2 74 6 137 10 140 3 3 29 -20 57 -52 29 -32 59 -57 67 -57 8 1 53 46 100 101 47 54 88 99 93 99 12 0 8 -57 -7 -97 -7 -21 -21 -65 -31 -98 -10 -33 -23 -76 -30 -95 -7 -19 -20 -60 -29 -90 -29 -93 -48 -133 -87 -181 -21 -26 -35 -49 -32 -53 4 -3 109 -6 235 -6 248 0 240 -2 218 56 -12 31 5 134 24 146 6 4 97 8 203 8 143 0 194 -3 200 -12 4 -7 8 -53 9 -103 l1 -90 209 -3 c114 -1 215 0 222 3 10 4 6 14 -17 40 -17 20 -31 42 -31 50 0 8 -6 29 -14 47 -14 32 -29 85 -59 198 -8 30 -22 84 -31 120 -10 36 -24 90 -31 120 -17 70 -39 159 -59 235 -8 33 -22 92 -31 130 -9 39 -22 93 -30 120 -8 28 -16 61 -19 75 -3 14 -10 45 -16 70 -7 25 -18 70 -25 100 -8 30 -21 82 -29 115 -37 148 -33 176 28 194 172 53 482 211 684 348 l62 43 960 0 c527 0 961 -3 964 -8 6 -10 -38 -186 -60 -240 -8 -18 -14 -39 -14 -47 0 -8 -6 -29 -14 -47 -13 -31 -22 -55 -62 -160 -16 -44 -22 -57 -69 -163 -103 -231 -232 -448 -399 -670 -280 -374 -570 -651 -916 -876 -222 -144 -525 -299 -755 -386 -22 -8 -55 -21 -73 -29 -18 -8 -39 -14 -47 -14 -8 0 -29 -6 -47 -14 -44 -18 -115 -38 -325 -90 -228 -57 -548 -96 -786 -96 -211 0 -514 30 -674 66 -34 8 -72 14 -84 14 -12 0 -45 6 -73 14 -28 8 -80 22 -116 31 -102 27 -239 70 -330 105 -30 12 -66 25 -80 30 -123 40 -466 206 -580 280 -8 6 -24 15 -35 20 -11 6 -32 18 -47 28 -14 9 -48 30 -75 46 -95 58 -262 180 -257 188 3 4 191 8 418 8 227 0 415 3 419 6 3 3 -8 32 -24 64 l-29 57 0 263 0 263 85 113 c47 63 85 120 85 129 0 13 -42 15 -362 13 l-363 -3 0 -150 0 -150 105 -5 105 -5 3 -110 c4 -152 17 -145 -245 -145 -228 0 -249 5 -277 64 -14 30 -16 84 -16 431 0 411 0 416 43 463 20 21 25 22 230 22 l209 0 29 -31 c24 -26 29 -39 31 -97 l3 -66 40 -8 c21 -5 93 -7 160 -6 l120 3 3 155 c2 129 0 162 -15 195 -29 67 -79 122 -141 152 l-57 28 -370 0 c-327 0 -375 -2 -418 -18 -90 -32 -142 -78 -180 -157 -21 -44 -22 -55 -25 -557 -2 -296 -7 -513 -12 -513 -10 0 -101 103 -171 195 -48 62 -199 283 -199 290 0 2 -13 23 -29 47 -46 70 -75 124 -161 298 -45 91 -86 174 -92 184 -6 11 -14 31 -18 45 -5 14 -18 51 -30 81 -30 79 -84 244 -104 320 -33 124 -35 133 -30 142 3 4 433 8 955 8 789 0 953 -2 972 -14z m936 -749 c48 -100 83 -156 170 -272 l76 -100 -3 -250 c-4 -243 -4 -251 -25 -267 -33 -26 -311 -26 -345 0 l-22 17 2 450 3 449 40 23 c22 12 47 22 55 22 9 0 30 -31 49 -72z m1425 -447 c9 -41 24 -102 31 -135 8 -33 16 -73 17 -90 l3 -30 -84 -3 c-46 -2 -89 2 -94 7 -6 6 -4 27 6 58 9 26 23 75 33 108 9 33 24 80 32 105 8 25 16 51 18 59 8 24 20 -1 38 -79z"/> <path d="M3290 7487 c-32 -16 -41 -88 -14 -118 40 -44 127 -5 127 56 0 51 -65 87 -113 62z"/> <path d="M5566 7479 c-54 -42 -18 -129 54 -129 36 0 70 38 70 78 0 65 -70 94 -124 51z"/> <path d="M2917 7292 c-23 -26 -22 -94 1 -115 30 -27 87 -22 111 9 43 54 10 124 -58 124 -24 0 -44 -7 -54 -18z"/> <path d="M5917 7292 c-47 -52 -18 -132 48 -132 26 0 39 7 54 29 12 16 21 37 21 46 0 20 -19 57 -34 67 -21 14 -73 8 -89 -10z"/> <path d="M2562 7077 c-28 -29 -29 -87 -4 -110 45 -41 132 -4 132 55 0 68 -83 103 -128 55z"/> <path d="M6277 7083 c-23 -26 -30 -68 -16 -95 16 -32 28 -38 71 -38 28 0 42 6 57 26 43 54 10 124 -58 124 -23 0 -44 -7 -54 -17z"/> <path d="M2155 6773 c-34 -8 -45 -33 -45 -103 0 -38 -5 -71 -12 -78 -19 -19 4 -37 30 -23 27 14 102 101 126 145 26 49 17 66 -36 65 -24 -1 -52 -3 -63 -6z"/> <path d="M6698 6773 c-29 -7 -21 -52 16 -97 121 -146 129 -146 120 -8 -6 83 -9 93 -28 97 -45 9 -92 12 -108 8z"/> <path d="M4420 7283 c-28 -11 -49 -48 -50 -86 0 -79 99 -126 159 -77 16 14 25 34 28 65 5 39 2 47 -25 75 -30 29 -72 38 -112 23z"/> <path d="M3320 5709 c0 -41 53 -146 98 -192 46 -47 152 -101 229 -117 32 -7 93 -23 137 -37 43 -13 81 -22 83 -19 15 15 -50 111 -131 191 -91 90 -144 124 -252 161 -45 15 -149 44 -159 44 -3 0 -5 -14 -5 -31z"/> <path d="M5527 5719 c-152 -43 -247 -95 -335 -186 -55 -57 -128 -176 -118 -192 4 -5 44 3 94 19 48 15 114 36 147 46 83 25 166 76 214 130 45 52 105 169 97 190 -7 17 -14 17 -99 -7z"/> <path d="M4220 4251 c0 -89 -1 -87 105 -154 l50 -32 3 -71 c2 -49 -1 -74 -10 -81 -9 -7 -45 -8 -108 -3 -52 5 -98 6 -101 4 -23 -14 60 -118 120 -148 109 -57 199 -69 299 -40 61 18 143 66 179 105 24 26 45 74 36 82 -3 3 -52 3 -109 0 -127 -7 -134 -3 -134 76 0 31 4 61 8 67 4 6 30 23 58 37 28 14 65 38 83 52 30 26 31 30 31 100 0 42 -5 77 -11 81 -13 8 -137 -48 -196 -88 -50 -33 -62 -34 -96 -8 -29 23 -181 100 -197 100 -6 0 -10 -33 -10 -79z"/> <path d="M5788 3193 c-2 -5 -2 -122 0 -261 l3 -253 112 3 112 3 5 90 5 90 145 0 145 0 3 -572 2 -572 -35 -60 c-20 -34 -47 -68 -60 -77 -14 -9 -22 -20 -19 -25 3 -5 131 -9 285 -9 296 0 307 2 259 45 -11 10 -33 39 -49 64 l-30 46 -7 573 c-6 488 -5 575 7 583 8 5 71 9 141 9 147 0 136 9 140 -115 l3 -70 95 0 95 0 0 255 0 255 -677 3 c-372 1 -678 -1 -680 -5z"/> <path d="M4255 1195 c-29 -28 -32 -65 -9 -100 20 -31 82 -35 107 -7 25 28 22 84 -6 110 -30 29 -62 28 -92 -3z"/> <path d="M4572 1197 c-28 -29 -30 -87 -4 -110 25 -22 85 -22 104 1 28 31 30 57 5 93 -29 44 -73 51 -105 16z"/> </g> </svg> 