<?xml version="1.0" encoding="UTF-8"?>
<svg xmlns="http://www.w3.org/2000/svg" xmlns:xlink="http://www.w3.org/1999/xlink" width="50px" height="49px" viewBox="0 0 49 49" version="1.1">
<g id="surface1">
<path style=" stroke:none;fill-rule:nonzero;fill:rgb(0%,0%,0%);fill-opacity:1;" d="M 22.023438 0.0820312 C 21.984375 0.136719 21.777344 0.175781 21.316406 0.214844 C 20.492188 0.289062 19.816406 0.398438 18.703125 0.640625 C 17.878906 0.824219 16.699219 1.15625 16.34375 1.308594 C 16.246094 1.351562 16.132812 1.382812 16.089844 1.382812 C 16.042969 1.382812 15.929688 1.417969 15.832031 1.460938 C 15.734375 1.507812 15.554688 1.578125 15.433594 1.621094 C 13.324219 2.421875 11.171875 3.617188 9.390625 4.980469 C 7.96875 6.0625 6.292969 7.679688 5.363281 8.867188 C 4.039062 10.542969 3.203125 11.863281 2.410156 13.484375 C 2.0625 14.195312 1.992188 14.347656 1.835938 14.730469 C 1.792969 14.835938 1.71875 15.011719 1.675781 15.117188 C 1.578125 15.347656 1.433594 15.726562 1.332031 16.003906 C 1.171875 16.480469 1.132812 16.597656 1.089844 16.753906 C 1.066406 16.839844 1.023438 16.980469 0.992188 17.058594 C 0.964844 17.132812 0.894531 17.355469 0.84375 17.554688 C 0.789062 17.753906 0.71875 18.027344 0.679688 18.164062 C 0.457031 18.996094 0.15625 20.667969 0.0703125 21.597656 C 0.015625 22.207031 0.015625 26.859375 0.0703125 27.46875 C 0.195312 28.808594 0.660156 31.089844 1.007812 32.066406 C 1.046875 32.171875 1.128906 32.417969 1.191406 32.617188 C 1.253906 32.816406 1.355469 33.117188 1.414062 33.285156 C 1.480469 33.449219 1.558594 33.664062 1.585938 33.765625 C 1.613281 33.863281 1.660156 33.957031 1.6875 33.976562 C 1.71875 33.996094 1.742188 34.046875 1.742188 34.089844 C 1.742188 34.207031 2.363281 35.546875 2.765625 36.300781 C 3.792969 38.230469 5.203125 40.160156 6.71875 41.722656 C 7.921875 42.964844 9.460938 44.238281 10.824219 45.105469 C 11.015625 45.230469 11.230469 45.371094 11.3125 45.421875 C 11.394531 45.476562 11.507812 45.542969 11.570312 45.578125 C 11.628906 45.609375 11.824219 45.722656 12.003906 45.828125 C 12.304688 46.003906 13.90625 46.816406 14.292969 46.988281 C 15.398438 47.476562 17.09375 48.058594 18.183594 48.3125 C 20.605469 48.882812 22.277344 49.050781 24.988281 48.996094 C 26.679688 48.957031 27.597656 48.898438 28.230469 48.796875 C 28.441406 48.761719 28.84375 48.691406 29.128906 48.644531 C 30.027344 48.496094 30.96875 48.269531 31.90625 47.976562 C 32.945312 47.652344 33.828125 47.332031 34.597656 46.988281 C 34.984375 46.816406 36.585938 46.003906 36.886719 45.828125 C 37.066406 45.722656 37.261719 45.609375 37.320312 45.578125 C 37.382812 45.542969 37.496094 45.476562 37.578125 45.421875 C 37.660156 45.371094 37.878906 45.230469 38.066406 45.105469 C 39.460938 44.214844 40.992188 42.945312 42.242188 41.652344 C 43.707031 40.132812 45.074219 38.257812 46.082031 36.382812 C 46.507812 35.59375 47.148438 34.214844 47.148438 34.089844 C 47.148438 34.046875 47.171875 33.996094 47.203125 33.976562 C 47.230469 33.957031 47.28125 33.863281 47.308594 33.765625 C 47.335938 33.664062 47.410156 33.449219 47.476562 33.285156 C 47.535156 33.117188 47.640625 32.816406 47.699219 32.617188 C 47.765625 32.417969 47.847656 32.171875 47.882812 32.066406 C 48.242188 31.050781 48.726562 28.640625 48.808594 27.46875 C 48.832031 27.148438 48.863281 26.976562 48.917969 26.9375 C 48.988281 26.882812 49 26.53125 49 24.535156 C 49 22.535156 48.988281 22.183594 48.917969 22.128906 C 48.863281 22.089844 48.832031 21.917969 48.808594 21.597656 C 48.753906 20.777344 48.449219 19.054688 48.210938 18.164062 C 48.171875 18.027344 48.101562 17.753906 48.046875 17.554688 C 48 17.355469 47.921875 17.105469 47.882812 17 C 47.730469 16.5625 47.683594 16.414062 47.640625 16.253906 C 47.613281 16.160156 47.539062 15.949219 47.476562 15.785156 C 47.410156 15.617188 47.339844 15.414062 47.3125 15.335938 C 47.289062 15.257812 47.246094 15.144531 47.21875 15.085938 C 47.1875 15.03125 47.128906 14.886719 47.078125 14.769531 C 46.648438 13.761719 46.128906 12.738281 45.574219 11.808594 C 44.40625 9.828125 43.238281 8.375 41.453125 6.640625 C 40.175781 5.40625 38.378906 4.074219 36.695312 3.132812 C 36.339844 2.933594 35.011719 2.269531 34.707031 2.136719 C 34.621094 2.097656 34.457031 2.027344 34.355469 1.984375 C 34.164062 1.894531 33.855469 1.773438 33.457031 1.621094 C 33.335938 1.578125 33.15625 1.507812 33.058594 1.460938 C 32.960938 1.417969 32.847656 1.382812 32.804688 1.382812 C 32.757812 1.382812 32.644531 1.351562 32.546875 1.308594 C 32.328125 1.210938 31.527344 0.96875 30.898438 0.808594 C 29.703125 0.503906 28.550781 0.300781 27.574219 0.214844 C 27.109375 0.175781 26.90625 0.136719 26.863281 0.0820312 C 26.769531 -0.0390625 22.105469 -0.0429688 22.023438 0.0820312 Z M 26.433594 1.355469 C 27.085938 1.433594 27.496094 1.488281 28.339844 1.628906 C 28.429688 1.644531 28.660156 1.695312 28.855469 1.738281 C 29.050781 1.785156 29.382812 1.855469 29.589844 1.898438 C 29.804688 1.949219 30.097656 2.019531 30.242188 2.070312 C 30.394531 2.117188 30.613281 2.183594 30.734375 2.214844 C 30.855469 2.25 31 2.296875 31.0625 2.320312 C 31.121094 2.347656 31.328125 2.425781 31.523438 2.492188 C 31.71875 2.558594 31.953125 2.652344 32.050781 2.691406 C 32.144531 2.734375 32.242188 2.769531 32.273438 2.769531 C 32.324219 2.769531 32.984375 3.023438 33.375 3.195312 C 33.679688 3.328125 34.894531 3.941406 35.308594 4.179688 C 36.476562 4.835938 38.351562 6.085938 38.796875 6.507812 C 38.828125 6.535156 38.9375 6.632812 39.042969 6.722656 C 39.929688 7.503906 40.832031 8.382812 41.183594 8.804688 C 41.269531 8.910156 41.476562 9.160156 41.648438 9.359375 C 41.824219 9.558594 42.105469 9.90625 42.28125 10.132812 C 42.457031 10.363281 42.617188 10.570312 42.644531 10.605469 C 42.667969 10.632812 42.792969 10.808594 42.925781 10.992188 C 44.128906 12.703125 45.015625 14.332031 45.726562 16.144531 C 45.753906 16.203125 45.816406 16.347656 45.863281 16.464844 C 45.914062 16.582031 45.949219 16.703125 45.949219 16.742188 C 45.949219 16.78125 45.984375 16.875 46.027344 16.957031 C 46.070312 17.039062 46.121094 17.183594 46.140625 17.285156 C 46.164062 17.390625 46.203125 17.503906 46.230469 17.554688 C 46.25 17.601562 46.308594 17.789062 46.359375 17.972656 C 46.414062 18.152344 46.484375 18.414062 46.523438 18.550781 C 46.734375 19.261719 46.964844 20.484375 47.136719 21.792969 C 47.273438 22.832031 47.273438 26.445312 47.132812 27.523438 C 46.984375 28.671875 46.804688 29.671875 46.632812 30.320312 C 46.582031 30.503906 46.507812 30.792969 46.46875 30.957031 C 46.328125 31.527344 46.261719 31.761719 46.222656 31.816406 C 46.203125 31.84375 46.164062 31.960938 46.140625 32.066406 C 46.121094 32.171875 46.082031 32.28125 46.058594 32.3125 C 46.039062 32.339844 45.976562 32.507812 45.929688 32.675781 C 45.875 32.839844 45.796875 33.050781 45.761719 33.144531 C 45.304688 34.1875 45.132812 34.5625 44.875 35.089844 C 44.585938 35.6875 44.371094 36.070312 44.109375 36.496094 C 43.984375 36.695312 43.796875 37.003906 43.679688 37.1875 C 43.515625 37.453125 42.832031 38.445312 42.644531 38.683594 C 42.617188 38.710938 42.558594 38.804688 42.503906 38.886719 C 42.179688 39.414062 40.441406 41.28125 39.503906 42.121094 C 39.082031 42.5 37.996094 43.335938 37.339844 43.792969 C 36.84375 44.136719 36.25 44.523438 36.214844 44.523438 C 36.207031 44.523438 36.054688 44.609375 35.882812 44.714844 C 35.714844 44.820312 35.4375 44.980469 35.269531 45.074219 C 35.101562 45.164062 34.914062 45.265625 34.859375 45.296875 C 34.734375 45.363281 34.132812 45.644531 33.78125 45.800781 C 33.367188 45.976562 33.316406 46 32.992188 46.132812 C 32.828125 46.191406 32.644531 46.269531 32.585938 46.296875 C 32.453125 46.351562 31.625 46.628906 31.167969 46.769531 C 30.988281 46.816406 30.746094 46.894531 30.625 46.933594 C 30.265625 47.054688 29.574219 47.214844 28.71875 47.382812 C 27.144531 47.691406 25.644531 47.808594 23.902344 47.765625 C 21.859375 47.714844 21.082031 47.621094 19.328125 47.214844 C 18.375 46.996094 17.8125 46.839844 17.175781 46.613281 C 16.878906 46.507812 16.398438 46.339844 16.117188 46.242188 C 15.433594 46.007812 15.042969 45.832031 13.828125 45.230469 C 12.675781 44.652344 11.03125 43.621094 10.207031 42.957031 C 10.027344 42.8125 9.792969 42.625 9.691406 42.542969 C 9.027344 42.015625 7.78125 40.792969 7.164062 40.066406 C 6.632812 39.4375 6.59375 39.390625 6.261719 38.960938 C 6.097656 38.742188 5.949219 38.5625 5.933594 38.542969 C 5.894531 38.511719 5.5625 38.0625 5.457031 37.902344 C 5.003906 37.214844 4.613281 36.566406 4.304688 35.996094 C 4.148438 35.707031 3.417969 34.214844 3.320312 33.976562 C 3.292969 33.914062 3.222656 33.738281 3.15625 33.585938 C 3.09375 33.433594 3.023438 33.261719 2.996094 33.199219 C 2.972656 33.140625 2.894531 32.941406 2.832031 32.757812 C 2.761719 32.574219 2.691406 32.375 2.664062 32.3125 C 2.472656 31.808594 2.113281 30.488281 1.925781 29.601562 C 1.5625 27.824219 1.496094 27.085938 1.496094 24.644531 C 1.496094 22.234375 1.574219 21.347656 1.921875 19.769531 C 1.964844 19.570312 2.03125 19.273438 2.070312 19.105469 C 2.101562 18.941406 2.152344 18.742188 2.179688 18.664062 C 2.199219 18.585938 2.277344 18.335938 2.347656 18.109375 C 2.589844 17.277344 2.949219 16.238281 3.15625 15.753906 C 3.183594 15.695312 3.261719 15.515625 3.320312 15.367188 C 3.457031 15.046875 3.929688 14.082031 4.1875 13.597656 C 4.40625 13.191406 5.070312 12.054688 5.113281 12.015625 C 5.128906 12 5.242188 11.839844 5.363281 11.65625 C 5.636719 11.230469 6.316406 10.304688 6.636719 9.914062 C 7.082031 9.371094 7.152344 9.289062 7.511719 8.894531 C 8.003906 8.347656 8.460938 7.886719 8.878906 7.5 C 9.074219 7.320312 9.332031 7.082031 9.453125 6.972656 C 9.667969 6.773438 10.96875 5.78125 11.464844 5.4375 C 11.941406 5.113281 12.484375 4.761719 12.515625 4.761719 C 12.539062 4.761719 12.648438 4.695312 12.765625 4.613281 C 12.886719 4.53125 13.082031 4.410156 13.203125 4.339844 C 13.324219 4.28125 13.566406 4.140625 13.746094 4.042969 C 14.476562 3.632812 15.523438 3.128906 15.765625 3.066406 C 15.835938 3.050781 15.914062 3.011719 15.929688 2.984375 C 15.945312 2.957031 16 2.933594 16.050781 2.933594 C 16.097656 2.933594 16.214844 2.894531 16.300781 2.851562 C 16.382812 2.808594 16.480469 2.769531 16.507812 2.769531 C 16.539062 2.769531 16.636719 2.734375 16.730469 2.691406 C 17.328125 2.421875 19.589844 1.773438 19.933594 1.773438 C 19.980469 1.773438 20.144531 1.738281 20.285156 1.695312 C 20.597656 1.601562 21.101562 1.523438 22.070312 1.414062 C 22.457031 1.367188 22.785156 1.316406 22.800781 1.300781 C 22.871094 1.234375 25.707031 1.277344 26.433594 1.355469 Z M 26.433594 1.355469 "/>
<path style=" stroke:none;fill-rule:nonzero;fill:rgb(0%,0%,0%);fill-opacity:1;" d="M 23.078125 2.324219 C 22.703125 2.347656 22.273438 2.390625 22.125 2.425781 C 21.980469 2.457031 21.691406 2.496094 21.476562 2.515625 C 21.269531 2.535156 20.988281 2.574219 20.851562 2.601562 C 20.714844 2.628906 20.488281 2.679688 20.335938 2.707031 C 20.015625 2.769531 19.601562 2.867188 18.523438 3.152344 C 18.398438 3.183594 18.25 3.234375 18.195312 3.261719 C 18.144531 3.289062 17.917969 3.367188 17.695312 3.433594 C 17.472656 3.503906 17.265625 3.582031 17.230469 3.605469 C 17.203125 3.632812 17.148438 3.65625 17.105469 3.65625 C 17.0625 3.65625 16.953125 3.6875 16.863281 3.734375 C 16.761719 3.769531 16.578125 3.847656 16.441406 3.902344 C 16.304688 3.953125 16.125 4.03125 16.035156 4.070312 C 15.945312 4.113281 15.75 4.203125 15.597656 4.265625 C 15.453125 4.332031 15.03125 4.535156 14.671875 4.722656 C 14.3125 4.90625 13.949219 5.09375 13.855469 5.140625 C 13.769531 5.1875 13.558594 5.316406 13.394531 5.425781 C 13.222656 5.539062 13.054688 5.644531 13.011719 5.671875 C 12.550781 5.902344 10.796875 7.171875 10.3125 7.625 C 10.226562 7.707031 10.027344 7.878906 9.875 8.003906 C 9.460938 8.339844 8.1875 9.652344 7.617188 10.328125 C 6.898438 11.179688 6.097656 12.273438 6.097656 12.40625 C 6.097656 12.425781 6.082031 12.460938 6.058594 12.472656 C 5.957031 12.515625 5.472656 13.3125 4.90625 14.371094 C 4.460938 15.203125 4.421875 15.273438 4.246094 15.699219 C 4.179688 15.851562 4.101562 16.050781 4.0625 16.144531 C 4.019531 16.230469 3.910156 16.53125 3.8125 16.808594 C 3.714844 17.078125 3.613281 17.355469 3.59375 17.417969 C 3.566406 17.476562 3.496094 17.714844 3.429688 17.941406 C 3.359375 18.171875 3.289062 18.410156 3.261719 18.46875 C 3.234375 18.53125 3.183594 18.691406 3.15625 18.828125 C 3.125 18.96875 3.058594 19.226562 3.015625 19.410156 C 2.726562 20.558594 2.558594 21.765625 2.445312 23.496094 C 2.375 24.503906 2.4375 26.410156 2.5625 27.328125 C 2.722656 28.425781 2.78125 28.808594 2.859375 29.210938 C 2.90625 29.457031 2.96875 29.792969 3 29.960938 C 3.054688 30.253906 3.179688 30.714844 3.265625 30.929688 C 3.292969 30.992188 3.355469 31.179688 3.398438 31.34375 C 3.527344 31.789062 3.875 32.746094 3.929688 32.8125 C 3.953125 32.839844 3.972656 32.894531 3.972656 32.933594 C 3.972656 33.117188 4.90625 35.035156 5.4375 35.941406 C 5.664062 36.324219 5.859375 36.644531 5.875 36.660156 C 5.890625 36.679688 5.933594 36.734375 5.960938 36.785156 C 6.082031 36.984375 6.535156 37.640625 6.632812 37.742188 C 6.6875 37.800781 6.757812 37.894531 6.785156 37.941406 C 6.839844 38.046875 7.046875 38.304688 7.628906 39.007812 C 8.257812 39.777344 9.414062 40.941406 10.046875 41.453125 C 10.191406 41.574219 10.351562 41.707031 10.394531 41.746094 C 10.738281 42.078125 12.113281 43.035156 13.066406 43.605469 C 13.410156 43.8125 13.730469 44 13.773438 44.027344 C 14.070312 44.210938 15.378906 44.835938 15.925781 45.050781 C 16.285156 45.191406 16.65625 45.34375 16.753906 45.390625 C 16.84375 45.433594 16.949219 45.464844 16.980469 45.464844 C 17.015625 45.464844 17.085938 45.488281 17.140625 45.515625 C 17.1875 45.542969 17.40625 45.621094 17.613281 45.683594 C 17.824219 45.75 18.070312 45.820312 18.15625 45.847656 C 18.25 45.875 18.542969 45.953125 18.8125 46.019531 C 19.082031 46.082031 19.382812 46.160156 19.476562 46.191406 C 19.800781 46.296875 20.90625 46.496094 21.804688 46.613281 C 22.339844 46.683594 22.960938 46.707031 24.308594 46.710938 C 26.328125 46.710938 27.0625 46.65625 28.421875 46.398438 C 28.582031 46.371094 28.84375 46.320312 28.992188 46.292969 C 29.144531 46.265625 29.3125 46.21875 29.371094 46.191406 C 29.433594 46.171875 29.605469 46.121094 29.753906 46.085938 C 29.90625 46.058594 30.164062 45.992188 30.324219 45.941406 C 30.488281 45.894531 30.71875 45.828125 30.832031 45.792969 C 30.945312 45.765625 31.078125 45.722656 31.132812 45.695312 C 31.179688 45.667969 31.410156 45.589844 31.632812 45.523438 C 31.855469 45.449219 32.0625 45.371094 32.09375 45.351562 C 32.121094 45.324219 32.175781 45.300781 32.21875 45.300781 C 32.289062 45.300781 32.445312 45.238281 32.855469 45.050781 C 32.949219 45.011719 33.117188 44.933594 33.238281 44.886719 C 33.792969 44.648438 34.882812 44.082031 35.550781 43.679688 C 36.226562 43.269531 37.011719 42.765625 37.078125 42.699219 C 37.09375 42.679688 37.203125 42.597656 37.328125 42.515625 C 37.445312 42.433594 37.59375 42.320312 37.652344 42.265625 C 37.707031 42.214844 37.925781 42.039062 38.132812 41.871094 C 39.679688 40.648438 41.414062 38.78125 42.359375 37.324219 C 42.402344 37.257812 42.464844 37.171875 42.492188 37.136719 C 42.601562 37.019531 43.140625 36.183594 43.414062 35.71875 C 43.761719 35.128906 44.28125 34.0625 44.644531 33.199219 C 44.851562 32.71875 44.917969 32.542969 45.042969 32.203125 C 45.210938 31.742188 45.304688 31.457031 45.457031 30.902344 C 45.519531 30.675781 45.597656 30.402344 45.628906 30.308594 C 45.664062 30.210938 45.707031 30.011719 45.734375 29.867188 C 45.761719 29.714844 45.816406 29.414062 45.859375 29.183594 C 45.90625 28.957031 45.96875 28.609375 46 28.410156 C 46.03125 28.210938 46.082031 27.910156 46.113281 27.746094 C 46.359375 26.355469 46.359375 22.527344 46.113281 21.375 C 46.085938 21.238281 46.039062 20.988281 46.003906 20.824219 C 45.824219 19.902344 45.789062 19.714844 45.71875 19.410156 C 45.667969 19.226562 45.589844 18.941406 45.542969 18.773438 C 45.492188 18.609375 45.433594 18.390625 45.414062 18.304688 C 45.359375 18.105469 45.074219 17.25 44.925781 16.863281 C 44.648438 16.117188 44.035156 14.785156 43.679688 14.148438 C 42.914062 12.78125 42.101562 11.535156 41.480469 10.769531 C 41.433594 10.710938 41.199219 10.421875 40.964844 10.132812 C 40.363281 9.402344 39.152344 8.179688 38.519531 7.671875 C 38.371094 7.546875 38.238281 7.433594 38.21875 7.414062 C 38.136719 7.316406 37.011719 6.496094 36.449219 6.125 C 36.089844 5.886719 35.730469 5.644531 35.648438 5.585938 C 35.570312 5.527344 35.488281 5.484375 35.46875 5.484375 C 35.453125 5.484375 35.34375 5.421875 35.226562 5.34375 C 34.914062 5.144531 34.464844 4.894531 33.835938 4.585938 C 32.960938 4.148438 32.613281 3.988281 32.011719 3.765625 C 31.3125 3.5 29.964844 3.046875 29.710938 2.992188 C 29.035156 2.835938 28.757812 2.773438 28.582031 2.726562 C 28.175781 2.613281 27.417969 2.496094 26.351562 2.382812 C 25.675781 2.316406 23.875 2.28125 23.078125 2.324219 Z M 26.140625 4.152344 C 27.558594 4.3125 27.945312 4.390625 29.753906 4.875 C 29.988281 4.941406 30.847656 5.234375 31.195312 5.371094 C 31.359375 5.4375 31.554688 5.511719 31.632812 5.53125 C 31.933594 5.632812 33.761719 6.535156 34.21875 6.8125 C 34.371094 6.898438 34.539062 7 34.597656 7.035156 C 34.660156 7.066406 34.773438 7.132812 34.855469 7.1875 C 34.9375 7.238281 35.15625 7.382812 35.34375 7.5 C 36.59375 8.289062 38.503906 10 39.65625 11.351562 C 41.066406 13.003906 42.0625 14.621094 42.984375 16.753906 C 43.554688 18.074219 43.925781 19.378906 44.285156 21.292969 C 44.464844 22.246094 44.558594 24.285156 44.480469 25.585938 C 44.398438 27.046875 44.339844 27.566406 44.234375 27.730469 L 44.144531 27.867188 L 42.90625 27.828125 C 42.234375 27.804688 41.65625 27.765625 41.628906 27.746094 C 41.585938 27.699219 41.6875 27.644531 42.503906 27.273438 C 42.878906 27.109375 42.925781 27.035156 43.011719 26.5 C 43.082031 26.066406 43.082031 25.65625 43.011719 25.613281 C 42.976562 25.589844 42.878906 25.640625 42.792969 25.71875 C 42.609375 25.875 41.867188 26.265625 41.828125 26.226562 C 41.8125 26.214844 41.828125 26.15625 41.855469 26.101562 C 41.882812 26.046875 41.921875 25.882812 41.945312 25.742188 C 41.988281 25.457031 42.113281 25.3125 42.695312 24.894531 C 42.863281 24.769531 43.03125 24.617188 43.058594 24.542969 C 43.09375 24.472656 43.121094 24.144531 43.121094 23.808594 C 43.121094 23.078125 43.070312 23.019531 42.746094 23.382812 C 42.625 23.519531 42.402344 23.695312 42.25 23.78125 L 41.976562 23.929688 L 41.976562 23.09375 L 42.460938 22.605469 C 42.722656 22.339844 42.96875 22.070312 43.003906 22.003906 C 43.050781 21.914062 43.042969 21.785156 42.988281 21.476562 C 42.945312 21.253906 42.890625 20.957031 42.875 20.804688 C 42.824219 20.445312 42.707031 20.457031 42.414062 20.863281 C 42.113281 21.277344 41.863281 21.542969 41.808594 21.515625 C 41.730469 21.460938 41.6875 20.679688 41.757812 20.539062 C 41.839844 20.375 42.3125 19.75 42.367188 19.726562 C 42.394531 19.714844 42.449219 19.632812 42.5 19.539062 C 42.574219 19.386719 42.570312 19.351562 42.460938 19.035156 C 42.207031 18.304688 42.0625 18 41.976562 18 C 41.949219 18 41.910156 18.046875 41.894531 18.113281 C 41.875 18.175781 41.765625 18.375 41.644531 18.550781 C 41.53125 18.734375 41.433594 18.902344 41.433594 18.933594 C 41.433594 18.996094 41.28125 19.160156 41.21875 19.160156 C 41.136719 19.160156 41.050781 18.304688 41.109375 18.085938 C 41.164062 17.882812 41.515625 17.246094 41.601562 17.191406 C 41.742188 17.101562 41.46875 16.359375 41.09375 15.820312 C 40.976562 15.648438 40.84375 15.628906 40.800781 15.765625 C 40.746094 15.949219 40.550781 16.476562 40.453125 16.695312 L 40.359375 16.914062 L 40.183594 16.535156 C 39.929688 15.976562 39.960938 15.660156 40.332031 15.0625 C 40.398438 14.957031 40.453125 14.8125 40.453125 14.746094 C 40.453125 14.542969 39.804688 13.625 39.664062 13.625 C 39.625 13.625 39.546875 13.738281 39.492188 13.882812 C 39.441406 14.035156 39.378906 14.171875 39.359375 14.203125 C 39.335938 14.234375 39.296875 14.347656 39.269531 14.453125 C 39.183594 14.785156 39.070312 14.726562 38.90625 14.277344 C 38.769531 13.910156 38.765625 13.855469 38.824219 13.601562 C 38.863281 13.453125 38.9375 13.242188 38.992188 13.140625 C 39.101562 12.964844 39.101562 12.957031 38.992188 12.808594 C 38.835938 12.585938 38.261719 12.039062 38.15625 12 C 38.023438 11.949219 37.949219 12.117188 37.949219 12.453125 C 37.949219 12.78125 37.804688 13.125 37.671875 13.125 C 37.621094 13.125 37.550781 13.164062 37.511719 13.207031 C 37.457031 13.269531 37.480469 13.347656 37.617188 13.601562 C 37.707031 13.777344 37.773438 13.933594 37.757812 13.945312 C 37.742188 13.960938 37.605469 13.945312 37.453125 13.910156 C 37.109375 13.828125 36.558594 13.824219 36.417969 13.898438 C 36.261719 13.988281 36.292969 14.121094 36.527344 14.382812 C 36.648438 14.515625 36.832031 14.726562 36.941406 14.851562 L 37.136719 15.089844 L 37.773438 15.074219 C 38.351562 15.058594 38.425781 15.0625 38.550781 15.167969 C 38.703125 15.289062 39.101562 15.921875 39.054688 15.964844 C 39.042969 15.984375 38.910156 15.960938 38.773438 15.921875 C 38.414062 15.820312 37.746094 15.765625 37.703125 15.832031 C 37.6875 15.867188 37.761719 16.066406 37.878906 16.28125 C 38.363281 17.199219 38.3125 17.164062 38.929688 17.199219 C 39.609375 17.246094 39.78125 17.328125 39.972656 17.722656 C 40.152344 18.082031 40.167969 18.242188 40.03125 18.199219 C 39.683594 18.085938 39.097656 17.941406 38.972656 17.941406 C 38.785156 17.941406 38.773438 18.039062 38.921875 18.484375 C 39.167969 19.210938 39.144531 19.1875 39.621094 19.300781 C 40.410156 19.488281 40.625 19.636719 40.796875 20.101562 C 40.964844 20.5625 40.957031 20.5625 40.207031 20.269531 C 39.417969 19.957031 39.40625 19.964844 39.546875 20.589844 C 39.597656 20.796875 39.644531 21.027344 39.664062 21.109375 C 39.695312 21.277344 39.863281 21.394531 40.265625 21.515625 C 40.707031 21.648438 40.996094 21.859375 41.109375 22.136719 C 41.203125 22.363281 41.253906 22.761719 41.1875 22.761719 C 41.171875 22.761719 41.117188 22.738281 41.0625 22.707031 C 41.011719 22.679688 40.882812 22.617188 40.777344 22.574219 C 40.675781 22.527344 40.472656 22.441406 40.332031 22.378906 C 40.058594 22.257812 39.929688 22.234375 39.886719 22.308594 C 39.871094 22.335938 39.886719 22.613281 39.917969 22.921875 C 39.980469 23.441406 39.988281 23.496094 40.109375 23.542969 C 40.484375 23.6875 40.882812 23.90625 41.046875 24.066406 C 41.214844 24.222656 41.234375 24.285156 41.257812 24.589844 C 41.285156 24.992188 41.230469 25.074219 41.039062 24.921875 C 40.964844 24.859375 40.84375 24.789062 40.773438 24.753906 C 40.621094 24.6875 40.496094 24.617188 40.246094 24.429688 C 40.140625 24.355469 40.042969 24.324219 40.015625 24.34375 C 39.996094 24.371094 39.960938 24.675781 39.953125 25.027344 L 39.933594 25.652344 L 40.222656 25.8125 C 40.582031 26.007812 40.832031 26.214844 40.957031 26.433594 C 41.050781 26.585938 41.054688 26.636719 40.996094 26.925781 C 40.957031 27.101562 40.910156 27.246094 40.882812 27.246094 C 40.796875 27.246094 40.316406 26.886719 40.09375 26.652344 C 39.878906 26.4375 39.859375 26.425781 39.78125 26.515625 C 39.664062 26.652344 39.566406 27.214844 39.609375 27.527344 L 39.644531 27.804688 L 39 27.789062 C 38.273438 27.773438 38.308594 27.800781 38.425781 27.300781 C 38.90625 25.304688 38.953125 23.03125 38.570312 21.15625 C 38.449219 20.566406 38.335938 20.136719 38.183594 19.6875 C 38.105469 19.472656 38.03125 19.222656 38.003906 19.132812 C 37.898438 18.722656 37.363281 17.59375 36.953125 16.890625 C 36.421875 16 35.988281 15.40625 35.355469 14.71875 C 35.191406 14.542969 35.0625 14.347656 35.0625 14.300781 C 35.0625 14.242188 35.1875 14.105469 35.335938 13.984375 C 35.488281 13.863281 35.605469 13.722656 35.605469 13.679688 C 35.605469 13.546875 34.964844 12.886719 34.167969 12.195312 C 33.558594 11.667969 32.394531 10.953125 31.605469 10.621094 C 30.640625 10.21875 30.242188 10.097656 29.292969 9.925781 C 28.726562 9.824219 28.71875 9.820312 28.699219 9.660156 C 28.679688 9.496094 28.796875 8.382812 28.9375 7.421875 C 29.058594 6.605469 29.085938 6.109375 29.023438 6.0625 C 28.964844 6.03125 28.167969 6.625 27.117188 7.472656 L 26.605469 7.886719 L 26.449219 7.699219 C 26.363281 7.59375 26.265625 7.449219 26.226562 7.382812 C 26.035156 7.027344 25.601562 6.324219 24.804688 5.078125 C 24.433594 4.496094 24.375 4.429688 24.296875 4.496094 C 24.222656 4.558594 24 4.878906 23.765625 5.265625 C 23.738281 5.316406 23.601562 5.539062 23.464844 5.753906 C 23.328125 5.976562 23.1875 6.207031 23.148438 6.273438 C 23.113281 6.339844 23.035156 6.460938 22.988281 6.546875 C 22.9375 6.625 22.746094 6.933594 22.566406 7.226562 C 22.394531 7.527344 22.214844 7.773438 22.175781 7.792969 C 22.136719 7.808594 21.96875 7.707031 21.792969 7.574219 C 20.695312 6.71875 19.734375 6.03125 19.660156 6.046875 C 19.5625 6.070312 19.554688 6.140625 19.648438 6.824219 C 19.746094 7.613281 19.828125 8.25 19.878906 8.695312 C 19.996094 9.761719 19.996094 9.796875 19.921875 9.824219 C 19.878906 9.835938 19.601562 9.886719 19.300781 9.941406 C 18.761719 10.035156 18.566406 10.085938 17.9375 10.296875 C 17.265625 10.523438 16.496094 10.84375 16.214844 11.019531 C 16.117188 11.082031 15.996094 11.148438 15.953125 11.171875 C 15.765625 11.257812 15.304688 11.558594 15 11.789062 C 14.320312 12.304688 13.066406 13.507812 13.066406 13.644531 C 13.066406 13.683594 13.214844 13.839844 13.394531 13.984375 C 13.574219 14.128906 13.71875 14.269531 13.71875 14.304688 C 13.71875 14.332031 13.5625 14.519531 13.378906 14.71875 C 12.453125 15.710938 11.65625 16.980469 10.96875 18.578125 C 10.539062 19.582031 10.296875 20.46875 10.011719 22.042969 C 9.898438 22.683594 9.882812 24.847656 9.984375 25.667969 C 10.082031 26.40625 10.203125 27.109375 10.296875 27.492188 C 10.332031 27.617188 10.332031 27.722656 10.300781 27.757812 C 10.273438 27.785156 9.984375 27.796875 9.664062 27.789062 L 9.070312 27.773438 L 9.085938 27.425781 C 9.097656 27.082031 8.976562 26.566406 8.863281 26.492188 C 8.835938 26.476562 8.734375 26.53125 8.640625 26.621094 C 8.308594 26.941406 7.839844 27.257812 7.757812 27.226562 C 7.699219 27.203125 7.675781 27.101562 7.675781 26.808594 C 7.675781 26.425781 7.675781 26.421875 7.90625 26.222656 C 8.035156 26.113281 8.265625 25.945312 8.421875 25.851562 C 8.574219 25.761719 8.726562 25.664062 8.753906 25.625 C 8.816406 25.550781 8.765625 24.460938 8.699219 24.394531 C 8.667969 24.363281 7.953125 24.722656 7.710938 24.898438 C 7.484375 25.054688 7.441406 25.003906 7.46875 24.617188 C 7.503906 24.117188 7.664062 23.945312 8.449219 23.597656 C 8.589844 23.53125 8.714844 23.464844 8.726562 23.441406 C 8.742188 23.414062 8.769531 23.144531 8.792969 22.828125 C 8.824219 22.308594 8.820312 22.261719 8.726562 22.261719 C 8.617188 22.261719 8.140625 22.449219 7.789062 22.632812 C 7.660156 22.707031 7.539062 22.75 7.523438 22.738281 C 7.476562 22.683594 7.578125 22.15625 7.675781 22.003906 C 7.785156 21.820312 8.222656 21.582031 8.5625 21.515625 C 8.820312 21.464844 9.09375 21.214844 9.09375 21.027344 C 9.09375 20.957031 9.128906 20.785156 9.175781 20.65625 C 9.277344 20.363281 9.277344 20.164062 9.179688 20.125 C 9.140625 20.109375 8.839844 20.1875 8.519531 20.296875 C 8.199219 20.40625 7.925781 20.484375 7.910156 20.46875 C 7.851562 20.40625 8.015625 19.890625 8.144531 19.753906 C 8.308594 19.578125 8.714844 19.386719 9.039062 19.34375 C 9.414062 19.292969 9.542969 19.199219 9.652344 18.902344 C 9.707031 18.757812 9.789062 18.574219 9.828125 18.496094 C 9.867188 18.417969 9.914062 18.265625 9.9375 18.148438 C 9.972656 17.953125 9.96875 17.941406 9.839844 17.941406 C 9.765625 17.941406 9.570312 17.980469 9.414062 18.03125 C 9.25 18.082031 9.015625 18.152344 8.890625 18.191406 C 8.601562 18.273438 8.597656 18.242188 8.820312 17.761719 C 9.03125 17.304688 9.167969 17.222656 9.816406 17.183594 C 10.21875 17.164062 10.339844 17.128906 10.441406 17.039062 C 10.507812 16.980469 10.5625 16.90625 10.5625 16.886719 C 10.5625 16.859375 10.675781 16.652344 10.8125 16.421875 C 11.132812 15.878906 11.121094 15.804688 10.699219 15.828125 C 10.410156 15.84375 10.160156 15.886719 9.84375 15.984375 C 9.6875 16.027344 9.722656 15.878906 9.957031 15.523438 C 10.277344 15.035156 10.257812 15.042969 10.976562 15.078125 C 11.574219 15.109375 11.609375 15.101562 11.707031 14.992188 C 11.761719 14.925781 11.917969 14.730469 12.058594 14.566406 C 12.554688 13.976562 12.539062 13.84375 11.976562 13.84375 C 11.769531 13.84375 11.488281 13.871094 11.351562 13.910156 C 11.222656 13.949219 11.089844 13.960938 11.070312 13.9375 C 11.046875 13.917969 11.085938 13.789062 11.15625 13.664062 C 11.296875 13.394531 11.292969 13.234375 11.132812 13.152344 C 10.835938 12.996094 10.796875 12.9375 10.753906 12.570312 C 10.710938 12.160156 10.648438 12.015625 10.53125 12.015625 C 10.484375 12.015625 10.277344 12.195312 10.070312 12.410156 C 9.667969 12.832031 9.597656 13.019531 9.765625 13.261719 C 9.804688 13.324219 9.875 13.5 9.917969 13.664062 L 10.007812 13.949219 L 9.804688 14.292969 C 9.605469 14.648438 9.472656 14.765625 9.472656 14.582031 C 9.472656 14.527344 9.441406 14.414062 9.398438 14.332031 C 9.355469 14.25 9.304688 14.117188 9.289062 14.027344 C 9.265625 13.945312 9.207031 13.8125 9.148438 13.734375 C 9.046875 13.601562 9.042969 13.601562 8.933594 13.699219 C 8.722656 13.894531 8.277344 14.621094 8.277344 14.769531 C 8.277344 14.847656 8.328125 14.992188 8.402344 15.085938 C 8.464844 15.179688 8.582031 15.378906 8.652344 15.527344 C 8.804688 15.851562 8.789062 16.171875 8.589844 16.585938 C 8.472656 16.847656 8.328125 16.972656 8.328125 16.824219 C 8.328125 16.785156 8.292969 16.6875 8.253906 16.601562 C 8.210938 16.515625 8.117188 16.289062 8.050781 16.085938 C 7.964844 15.820312 7.910156 15.726562 7.84375 15.738281 C 7.691406 15.773438 7.132812 16.734375 7.132812 16.972656 C 7.132812 17.050781 7.226562 17.246094 7.34375 17.410156 C 7.710938 17.914062 7.785156 18.1875 7.675781 18.601562 C 7.648438 18.710938 7.613281 18.902344 7.59375 19.023438 L 7.558594 19.238281 L 7.453125 19.105469 C 7.398438 19.027344 7.351562 18.945312 7.351562 18.921875 C 7.351562 18.855469 6.871094 18.121094 6.800781 18.074219 C 6.679688 18.003906 6.460938 18.464844 6.28125 19.15625 C 6.195312 19.476562 6.222656 19.566406 6.488281 19.835938 C 6.554688 19.902344 6.6875 20.082031 6.789062 20.234375 C 6.957031 20.5 6.96875 20.546875 6.96875 21 C 6.96875 21.265625 6.945312 21.492188 6.925781 21.507812 C 6.875 21.539062 6.550781 21.175781 6.234375 20.75 C 6.082031 20.546875 6.074219 20.539062 5.976562 20.640625 C 5.914062 20.707031 5.851562 20.917969 5.796875 21.238281 C 5.671875 22.023438 5.65625 21.976562 6.203125 22.527344 C 6.664062 23 6.6875 23.03125 6.722656 23.320312 C 6.746094 23.488281 6.75 23.691406 6.738281 23.769531 L 6.722656 23.917969 L 6.398438 23.667969 C 6.21875 23.53125 6.003906 23.34375 5.921875 23.25 C 5.832031 23.144531 5.75 23.09375 5.695312 23.109375 C 5.625 23.136719 5.609375 23.253906 5.609375 23.796875 C 5.609375 24.566406 5.613281 24.582031 6.140625 24.9375 C 6.675781 25.304688 6.734375 25.386719 6.777344 25.816406 C 6.800781 26.027344 6.792969 26.195312 6.773438 26.195312 C 6.714844 26.195312 6.125 25.835938 5.941406 25.691406 C 5.792969 25.570312 5.683594 25.558594 5.652344 25.652344 C 5.597656 25.789062 5.699219 26.835938 5.777344 26.964844 C 5.835938 27.070312 6.550781 27.46875 6.667969 27.46875 C 6.777344 27.46875 7.191406 27.707031 7.152344 27.746094 C 7.125 27.773438 6.539062 27.8125 5.847656 27.828125 L 4.585938 27.871094 L 4.496094 27.734375 C 4.441406 27.644531 4.386719 27.378906 4.355469 27.019531 C 4.328125 26.703125 4.273438 26.167969 4.242188 25.835938 C 4.105469 24.527344 4.28125 22.03125 4.613281 20.519531 C 4.808594 19.609375 5.117188 18.464844 5.257812 18.121094 C 5.304688 18.019531 5.335938 17.894531 5.335938 17.84375 C 5.335938 17.789062 5.355469 17.722656 5.378906 17.6875 C 5.40625 17.660156 5.484375 17.476562 5.554688 17.277344 C 5.792969 16.589844 6.566406 14.992188 7.007812 14.277344 C 7.078125 14.160156 7.132812 14.054688 7.132812 14.042969 C 7.132812 13.972656 8.519531 11.972656 8.652344 11.851562 C 8.671875 11.835938 8.859375 11.613281 9.074219 11.351562 C 10.132812 10.078125 11.796875 8.613281 13.480469 7.472656 C 14.121094 7.035156 14.160156 7.011719 14.632812 6.746094 C 16.59375 5.660156 18.03125 5.078125 19.84375 4.636719 C 22.09375 4.085938 24.171875 3.925781 26.140625 4.152344 Z M 24.5 7.292969 C 24.558594 7.410156 24.65625 7.574219 24.71875 7.671875 C 24.777344 7.757812 24.847656 7.886719 24.875 7.945312 C 24.941406 8.101562 25.464844 8.972656 25.746094 9.398438 L 25.976562 9.746094 L 26.265625 9.746094 C 26.503906 9.746094 26.574219 9.726562 26.683594 9.601562 C 26.753906 9.523438 26.933594 9.355469 27.082031 9.230469 L 27.347656 9.003906 L 27.308594 9.191406 C 27.289062 9.296875 27.242188 9.597656 27.207031 9.859375 L 27.140625 10.328125 L 24.375 10.34375 C 22.191406 10.355469 21.609375 10.34375 21.59375 10.289062 C 21.523438 10.0625 21.386719 9.132812 21.414062 9.097656 C 21.433594 9.082031 21.609375 9.214844 21.800781 9.402344 C 22.140625 9.742188 22.152344 9.746094 22.457031 9.746094 C 22.746094 9.746094 22.769531 9.742188 22.84375 9.5625 C 22.9375 9.359375 22.941406 9.359375 23.410156 8.5625 C 23.605469 8.234375 23.824219 7.863281 23.894531 7.738281 C 24.15625 7.277344 24.28125 7.089844 24.335938 7.089844 C 24.363281 7.089844 24.441406 7.183594 24.5 7.292969 Z M 20.894531 11.464844 C 21.390625 11.625 21.789062 11.835938 22.082031 12.09375 C 22.347656 12.332031 22.386719 12.515625 22.167969 12.515625 C 22.027344 12.515625 21.566406 12.6875 21.324219 12.835938 C 21.058594 12.992188 20.957031 12.992188 20.695312 12.820312 C 20.335938 12.59375 20.347656 12.550781 20.8125 12.273438 C 21 12.160156 21.058594 12.09375 21.019531 12.054688 C 20.929688 11.960938 18.460938 11.972656 18.296875 12.0625 C 18.136719 12.160156 18.199219 12.226562 18.648438 12.40625 C 19.34375 12.683594 19.953125 13.234375 20.5 14.089844 C 21.109375 15.042969 21.261719 15.46875 21.585938 17.167969 C 21.730469 17.902344 21.859375 18.335938 22.027344 18.640625 C 22.191406 18.941406 22.671875 19.492188 22.757812 19.492188 C 22.835938 19.492188 22.824219 19.320312 22.730469 19.050781 C 22.648438 18.8125 22.621094 18.542969 22.679688 18.484375 C 22.699219 18.464844 22.886719 18.535156 23.101562 18.628906 C 23.824219 18.96875 23.878906 18.945312 23.527344 18.476562 C 23.246094 18.097656 22.996094 17.628906 22.949219 17.398438 C 22.921875 17.257812 22.925781 17.222656 23.007812 17.222656 C 23.199219 17.222656 24 17.660156 24.117188 17.832031 C 24.265625 18.039062 24.320312 18.039062 24.496094 17.835938 C 24.675781 17.632812 25.472656 17.230469 25.714844 17.222656 C 25.851562 17.222656 25.546875 17.886719 25.179688 18.386719 C 25.054688 18.550781 24.941406 18.734375 24.917969 18.789062 C 24.890625 18.875 24.910156 18.878906 25.035156 18.851562 C 25.113281 18.828125 25.21875 18.796875 25.269531 18.769531 C 25.410156 18.695312 25.828125 18.550781 25.90625 18.550781 C 25.992188 18.550781 25.949219 18.996094 25.828125 19.351562 C 25.734375 19.609375 25.734375 19.605469 25.828125 19.605469 C 25.867188 19.605469 25.992188 19.503906 26.101562 19.378906 C 26.605469 18.8125 26.984375 17.964844 27.0625 17.195312 C 27.089844 16.953125 27.140625 16.691406 27.167969 16.613281 C 27.191406 16.535156 27.226562 16.382812 27.25 16.257812 C 27.265625 16.144531 27.304688 16.003906 27.332031 15.953125 C 27.351562 15.90625 27.417969 15.738281 27.46875 15.589844 C 27.84375 14.488281 28.304688 13.722656 29.003906 13.070312 C 29.363281 12.730469 29.875 12.417969 30.238281 12.304688 C 30.445312 12.246094 30.472656 12.15625 30.316406 12.066406 C 30.171875 11.984375 28.277344 11.960938 27.910156 12.039062 C 27.707031 12.078125 27.703125 12.082031 27.800781 12.171875 C 27.859375 12.226562 27.96875 12.3125 28.054688 12.367188 C 28.285156 12.515625 28.257812 12.570312 27.835938 12.921875 C 27.722656 13.015625 27.707031 13.007812 27.199219 12.765625 C 26.910156 12.625 26.628906 12.515625 26.574219 12.515625 C 26.226562 12.515625 26.210938 12.316406 26.53125 12.050781 C 26.78125 11.847656 27.195312 11.640625 27.738281 11.445312 C 28.011719 11.351562 28.207031 11.335938 28.964844 11.332031 C 29.90625 11.332031 29.917969 11.332031 30.816406 11.65625 C 31.523438 11.917969 32.671875 12.558594 33.074219 12.925781 C 33.296875 13.128906 33.261719 13.234375 33.007812 13.109375 C 32.769531 12.988281 32.183594 12.882812 31.769531 12.882812 C 30.667969 12.890625 29.78125 13.246094 29.046875 13.984375 C 28.402344 14.625 28.082031 15.203125 27.828125 16.199219 C 27.691406 16.707031 27.613281 17.777344 27.710938 17.777344 C 27.75 17.777344 27.933594 17.636719 28.121094 17.472656 C 28.546875 17.097656 29.136719 16.769531 29.671875 16.625 C 30.117188 16.503906 31.078125 16.335938 31.328125 16.335938 L 31.484375 16.335938 L 31.453125 16.875 C 31.382812 17.921875 31.054688 18.679688 30.417969 19.285156 C 30.117188 19.558594 29.550781 19.835938 28.746094 20.101562 C 27.960938 20.363281 27.789062 20.441406 27.40625 20.722656 C 27.074219 20.964844 26.878906 21.195312 26.710938 21.539062 C 26.464844 22.023438 26.320312 22.921875 26.464844 23.011719 C 26.5 23.03125 26.574219 23 26.640625 22.945312 C 26.765625 22.832031 27.042969 22.707031 27.40625 22.589844 C 27.523438 22.554688 27.710938 22.441406 27.828125 22.335938 C 28.023438 22.152344 28.039062 22.113281 28.039062 21.847656 C 28.039062 21.507812 28.070312 21.472656 28.453125 21.375 C 28.90625 21.261719 28.933594 21.289062 28.894531 21.890625 C 28.855469 22.511719 28.699219 22.921875 28.328125 23.320312 C 28.082031 23.585938 27.695312 23.8125 27.484375 23.8125 C 27.324219 23.8125 27.308594 23.953125 27.433594 24.328125 C 27.707031 25.160156 27.667969 26.195312 27.34375 26.929688 C 27.242188 27.152344 27.140625 27.300781 27.101562 27.292969 C 27.070312 27.28125 27 27.121094 26.949219 26.941406 C 26.808594 26.425781 26.75 26.460938 26.617188 27.109375 C 26.578125 27.292969 26.445312 27.65625 26.308594 27.929688 C 26.035156 28.480469 25.691406 28.832031 25.136719 29.136719 C 24.835938 29.296875 24.75 29.316406 24.390625 29.3125 C 24.070312 29.3125 23.917969 29.285156 23.683594 29.175781 C 23.28125 28.984375 22.867188 28.640625 22.601562 28.289062 C 22.355469 27.949219 22.0625 27.28125 22.015625 26.949219 C 21.941406 26.371094 21.898438 26.355469 21.757812 26.84375 C 21.703125 27.019531 21.648438 27.203125 21.636719 27.246094 C 21.578125 27.429688 21.316406 26.953125 21.113281 26.304688 C 20.964844 25.828125 20.992188 25 21.179688 24.503906 C 21.246094 24.324219 21.308594 24.097656 21.324219 24.007812 C 21.347656 23.847656 21.335938 23.835938 21.027344 23.742188 C 20.265625 23.503906 19.761719 22.695312 19.761719 21.714844 C 19.761719 21.34375 19.84375 21.28125 20.214844 21.382812 C 20.492188 21.460938 20.5 21.464844 20.53125 21.707031 C 20.554688 21.847656 20.605469 22.03125 20.65625 22.117188 C 20.75 22.300781 21.125 22.582031 21.335938 22.628906 C 21.582031 22.683594 21.902344 22.820312 22.039062 22.933594 C 22.230469 23.082031 22.269531 23.066406 22.269531 22.832031 C 22.269531 22.085938 21.980469 21.355469 21.523438 20.9375 C 21.117188 20.574219 20.75 20.378906 19.851562 20.074219 C 18.929688 19.765625 18.554688 19.558594 18.128906 19.140625 C 17.542969 18.5625 17.285156 17.964844 17.226562 17.007812 C 17.195312 16.453125 17.199219 16.390625 17.285156 16.359375 C 17.382812 16.320312 18.582031 16.507812 19.035156 16.636719 C 19.621094 16.800781 20.1875 17.128906 20.625 17.554688 C 20.753906 17.683594 20.890625 17.769531 20.921875 17.761719 C 21.117188 17.695312 20.960938 16.453125 20.660156 15.671875 C 20.4375 15.101562 20.40625 15.03125 20.066406 14.519531 C 19.246094 13.257812 17.640625 12.617188 16.171875 12.957031 C 15.886719 13.023438 15.582031 13.089844 15.488281 13.109375 L 15.324219 13.136719 L 15.488281 12.964844 C 15.804688 12.617188 16.730469 12.0625 17.464844 11.773438 C 17.992188 11.570312 18.117188 11.523438 18.457031 11.441406 C 18.945312 11.320312 19.152344 11.304688 19.898438 11.332031 C 20.347656 11.347656 20.660156 11.386719 20.894531 11.464844 Z M 25.996094 13.152344 C 26.398438 13.242188 27.058594 13.558594 27.058594 13.667969 C 27.058594 13.789062 26.851562 14.210938 26.753906 14.292969 C 26.683594 14.347656 26.640625 14.347656 26.5 14.277344 C 26.3125 14.175781 25.96875 14.0625 25.605469 13.960938 C 25.320312 13.882812 25.289062 13.828125 25.375 13.605469 C 25.507812 13.261719 25.648438 13.0625 25.746094 13.089844 C 25.796875 13.109375 25.910156 13.136719 25.996094 13.152344 Z M 23.148438 13.429688 C 23.347656 13.789062 23.328125 13.910156 23.085938 13.972656 C 22.703125 14.0625 22.296875 14.199219 22.1875 14.269531 C 22.125 14.308594 22.039062 14.34375 21.988281 14.34375 C 21.886719 14.34375 21.550781 13.8125 21.570312 13.691406 C 21.59375 13.589844 21.855469 13.433594 22.234375 13.292969 C 22.859375 13.058594 22.960938 13.074219 23.148438 13.429688 Z M 26.003906 14.96875 C 26.398438 15.128906 26.453125 15.210938 26.339844 15.488281 C 26.292969 15.605469 26.238281 15.765625 26.21875 15.851562 C 26.183594 16.027344 26.007812 16.054688 25.761719 15.925781 C 25.679688 15.886719 25.496094 15.832031 25.347656 15.8125 C 24.972656 15.753906 24.9375 15.734375 24.9375 15.566406 C 24.9375 15.378906 25.09375 14.886719 25.175781 14.824219 C 25.261719 14.765625 25.644531 14.832031 26.003906 14.96875 Z M 23.644531 15.144531 C 23.707031 15.296875 23.753906 15.496094 23.757812 15.589844 C 23.765625 15.75 23.753906 15.753906 23.410156 15.820312 C 23.214844 15.855469 22.949219 15.925781 22.816406 15.976562 C 22.6875 16.027344 22.5625 16.042969 22.539062 16.019531 C 22.457031 15.917969 22.316406 15.390625 22.332031 15.246094 C 22.347656 15.109375 22.394531 15.074219 22.703125 14.96875 C 22.910156 14.898438 23.160156 14.847656 23.300781 14.859375 C 23.535156 14.871094 23.546875 14.875 23.644531 15.144531 Z M 14.472656 17.464844 C 14.75 17.609375 14.859375 18.007812 14.699219 18.304688 C 14.660156 18.375 14.535156 18.476562 14.421875 18.519531 C 14.230469 18.597656 14.1875 18.597656 13.992188 18.519531 C 13.730469 18.410156 13.664062 18.308594 13.664062 17.988281 C 13.664062 17.726562 13.71875 17.628906 13.9375 17.476562 C 14.101562 17.367188 14.273438 17.367188 14.472656 17.464844 Z M 34.824219 17.527344 C 35.050781 17.703125 35.109375 17.964844 34.980469 18.238281 C 34.839844 18.542969 34.46875 18.644531 34.140625 18.46875 C 33.957031 18.375 33.917969 18.285156 33.917969 17.988281 C 33.917969 17.800781 33.953125 17.734375 34.113281 17.578125 C 34.355469 17.34375 34.566406 17.332031 34.824219 17.527344 Z M 13.148438 20.800781 C 13.457031 21.003906 13.441406 21.625 13.121094 21.792969 C 12.703125 22.011719 12.253906 21.753906 12.25 21.289062 C 12.25 20.972656 12.5 20.710938 12.804688 20.710938 C 12.917969 20.710938 13.078125 20.75 13.148438 20.800781 Z M 17.085938 20.871094 C 17.230469 21.011719 17.257812 21.078125 17.257812 21.277344 C 17.257812 21.570312 17.148438 21.738281 16.898438 21.847656 C 16.730469 21.917969 16.683594 21.917969 16.511719 21.847656 C 16.242188 21.730469 16.175781 21.613281 16.171875 21.28125 C 16.171875 21.027344 16.1875 20.984375 16.351562 20.855469 C 16.59375 20.65625 16.855469 20.664062 17.085938 20.871094 Z M 32.257812 20.8125 C 32.617188 21.128906 32.550781 21.679688 32.144531 21.820312 C 31.550781 22.019531 31.121094 21.382812 31.527344 20.90625 C 31.671875 20.738281 31.730469 20.710938 31.925781 20.710938 C 32.058594 20.71875 32.191406 20.757812 32.257812 20.8125 Z M 36.179688 20.8125 C 36.324219 20.9375 36.476562 21.1875 36.476562 21.300781 C 36.476562 21.480469 36.261719 21.757812 36.058594 21.824219 C 35.660156 21.957031 35.28125 21.691406 35.28125 21.269531 C 35.28125 21.015625 35.601562 20.710938 35.867188 20.710938 C 35.976562 20.71875 36.117188 20.757812 36.179688 20.8125 Z M 19.300781 24.128906 C 19.34375 24.183594 19.511719 24.378906 19.675781 24.5625 L 19.976562 24.898438 L 19.835938 25.335938 C 19.757812 25.578125 19.664062 25.867188 19.628906 25.972656 C 19.398438 26.605469 19.261719 27.734375 19.277344 28.875 C 19.285156 29.515625 19.273438 29.765625 19.222656 29.785156 C 19.027344 29.851562 16.894531 28.714844 16.742188 28.464844 C 16.726562 28.433594 16.882812 28.210938 17.09375 27.960938 C 17.433594 27.574219 17.707031 27.191406 17.949219 26.777344 C 18.027344 26.644531 18.707031 25.238281 18.8125 25.003906 C 18.902344 24.789062 19.035156 24.378906 19.078125 24.183594 C 19.117188 24.011719 19.1875 23.996094 19.300781 24.128906 Z M 29.683594 24.367188 C 29.792969 24.683594 29.824219 24.78125 29.972656 25.191406 C 30.296875 26.105469 31.152344 27.550781 31.777344 28.242188 C 31.851562 28.320312 31.90625 28.394531 31.90625 28.410156 C 31.898438 28.558594 31.148438 29.0625 30.296875 29.472656 C 30.117188 29.5625 29.910156 29.667969 29.835938 29.710938 C 29.757812 29.75 29.628906 29.792969 29.542969 29.804688 L 29.390625 29.820312 L 29.371094 28.632812 C 29.367188 27.976562 29.328125 27.320312 29.292969 27.164062 C 29.257812 27.007812 29.203125 26.757812 29.175781 26.609375 C 29.132812 26.359375 29.078125 26.160156 28.832031 25.308594 C 28.796875 25.171875 28.746094 25.015625 28.726562 24.964844 C 28.691406 24.898438 28.769531 24.78125 29.003906 24.535156 C 29.175781 24.34375 29.339844 24.15625 29.363281 24.113281 C 29.449219 23.957031 29.578125 24.0625 29.683594 24.367188 Z M 13.035156 24.316406 C 13.171875 24.472656 13.1875 24.527344 13.160156 24.742188 C 13.121094 25.085938 12.925781 25.246094 12.542969 25.253906 C 12.234375 25.253906 12.121094 25.164062 12.03125 24.871094 C 11.859375 24.25 12.609375 23.839844 13.035156 24.316406 Z M 16.816406 24.277344 C 16.933594 24.394531 16.960938 24.476562 16.960938 24.695312 C 16.960938 25.085938 16.796875 25.253906 16.421875 25.253906 C 16.230469 25.246094 16.105469 25.214844 16.023438 25.148438 C 15.695312 24.871094 15.765625 24.304688 16.144531 24.140625 C 16.332031 24.058594 16.664062 24.125 16.816406 24.277344 Z M 32.597656 24.234375 C 32.65625 24.273438 32.738281 24.394531 32.777344 24.503906 C 32.90625 24.910156 32.640625 25.253906 32.191406 25.253906 C 31.605469 25.253906 31.472656 24.316406 32.039062 24.152344 C 32.226562 24.097656 32.421875 24.125 32.597656 24.234375 Z M 36.265625 24.15625 C 36.53125 24.25 36.636719 24.40625 36.640625 24.703125 C 36.640625 24.910156 36.613281 24.980469 36.484375 25.109375 C 36.347656 25.242188 36.292969 25.257812 36.035156 25.242188 C 35.777344 25.226562 35.730469 25.207031 35.621094 25.039062 C 35.550781 24.933594 35.496094 24.789062 35.496094 24.714844 C 35.496094 24.5 35.65625 24.257812 35.839844 24.171875 C 36.058594 24.074219 36.042969 24.078125 36.265625 24.15625 Z M 21.117188 27.8125 C 21.28125 28.792969 21.691406 29.84375 22.242188 30.707031 C 22.582031 31.25 22.90625 31.472656 22.730469 31.050781 C 22.636719 30.820312 22.574219 29.738281 22.644531 29.628906 C 22.71875 29.511719 22.78125 29.59375 22.914062 30.011719 C 23.019531 30.320312 23.230469 30.761719 23.425781 31.097656 C 23.640625 31.445312 24.296875 32.285156 24.363281 32.285156 C 24.40625 32.285156 24.582031 32.09375 24.761719 31.855469 C 25.214844 31.246094 25.453125 30.820312 25.671875 30.238281 C 25.8125 29.855469 25.9375 29.613281 25.996094 29.605469 C 26.089844 29.59375 26.09375 30.492188 25.996094 30.820312 C 25.90625 31.152344 25.894531 31.34375 25.964844 31.34375 C 26.078125 31.34375 26.550781 30.648438 26.824219 30.070312 C 27.199219 29.285156 27.5 28.34375 27.574219 27.734375 C 27.609375 27.460938 27.683594 27.363281 27.777344 27.457031 C 27.804688 27.484375 27.871094 27.855469 27.917969 28.277344 C 27.988281 28.929688 27.988281 29.164062 27.933594 29.820312 C 27.875 30.546875 27.832031 30.773438 27.621094 31.484375 C 27.402344 32.238281 27.015625 33.066406 26.628906 33.644531 C 26.292969 34.140625 26.1875 34.175781 26.1875 33.769531 C 26.1875 33.195312 25.996094 32.847656 25.910156 33.273438 C 25.839844 33.617188 25.25 34.699219 24.835938 35.242188 C 24.609375 35.546875 24.390625 35.804688 24.351562 35.8125 C 24.28125 35.839844 23.75 35.144531 23.421875 34.601562 C 23.171875 34.1875 22.8125 33.425781 22.8125 33.316406 C 22.8125 33.277344 22.757812 33.171875 22.699219 33.09375 C 22.535156 32.882812 22.484375 32.984375 22.484375 33.503906 C 22.484375 33.730469 22.464844 33.953125 22.441406 33.988281 C 22.371094 34.097656 21.707031 33.140625 21.429688 32.535156 C 21.375 32.414062 21.292969 32.242188 21.253906 32.160156 C 21.210938 32.070312 21.179688 31.964844 21.179688 31.925781 C 21.179688 31.882812 21.144531 31.765625 21.101562 31.667969 C 21.011719 31.445312 20.886719 31.007812 20.769531 30.503906 C 20.605469 29.765625 20.671875 28.042969 20.890625 27.300781 C 20.9375 27.140625 21.046875 27.390625 21.117188 27.8125 Z M 15.261719 29.375 C 15.324219 29.414062 15.554688 29.5625 15.773438 29.707031 C 15.992188 29.84375 16.175781 29.960938 16.191406 29.960938 C 16.207031 29.960938 16.328125 30.039062 16.464844 30.132812 C 16.828125 30.382812 17.8125 30.886719 18.390625 31.125 C 18.667969 31.238281 18.910156 31.34375 18.925781 31.363281 C 18.945312 31.378906 18.832031 31.457031 18.679688 31.539062 C 18.316406 31.726562 17.988281 32.027344 17.847656 32.308594 C 17.6875 32.617188 17.660156 33.476562 17.695312 36.765625 L 17.722656 39.402344 L 17.851562 39.640625 C 18.019531 39.957031 18.304688 40.179688 18.695312 40.316406 C 18.988281 40.417969 19.160156 40.425781 20.464844 40.425781 C 22.421875 40.425781 22.835938 40.328125 23.273438 39.742188 C 23.503906 39.4375 23.578125 39.082031 23.605469 38.273438 C 23.617188 37.863281 23.640625 37.515625 23.660156 37.496094 C 23.679688 37.480469 23.820312 37.609375 23.972656 37.785156 C 24.128906 37.960938 24.292969 38.101562 24.335938 38.101562 C 24.378906 38.097656 24.625 37.847656 24.882812 37.542969 C 25.136719 37.242188 25.359375 36.992188 25.386719 36.992188 C 25.453125 36.992188 25.429688 37.308594 25.347656 37.53125 C 25.3125 37.648438 25.234375 37.890625 25.179688 38.074219 C 25.125 38.257812 25.054688 38.496094 25.015625 38.601562 C 24.980469 38.703125 24.910156 38.933594 24.859375 39.097656 C 24.703125 39.613281 24.597656 39.835938 24.386719 40.101562 C 24.269531 40.246094 24.195312 40.371094 24.210938 40.394531 C 24.234375 40.410156 24.804688 40.425781 25.492188 40.425781 C 26.839844 40.425781 26.796875 40.4375 26.679688 40.117188 C 26.613281 39.945312 26.703125 39.375 26.808594 39.308594 C 26.839844 39.285156 27.335938 39.265625 27.914062 39.265625 C 28.691406 39.265625 28.96875 39.28125 29.003906 39.332031 C 29.023438 39.371094 29.046875 39.625 29.050781 39.902344 L 29.058594 40.398438 L 30.195312 40.417969 C 30.816406 40.421875 31.367188 40.417969 31.402344 40.398438 C 31.457031 40.378906 31.4375 40.320312 31.3125 40.179688 C 31.21875 40.066406 31.140625 39.945312 31.140625 39.902344 C 31.140625 39.855469 31.109375 39.742188 31.066406 39.640625 C 30.988281 39.464844 30.90625 39.171875 30.746094 38.542969 C 30.703125 38.378906 30.625 38.078125 30.574219 37.878906 C 30.523438 37.679688 30.445312 37.382812 30.40625 37.214844 C 30.316406 36.828125 30.195312 36.335938 30.085938 35.914062 C 30.042969 35.730469 29.964844 35.402344 29.917969 35.195312 C 29.867188 34.976562 29.796875 34.679688 29.753906 34.527344 C 29.710938 34.375 29.667969 34.191406 29.652344 34.113281 C 29.632812 34.035156 29.597656 33.863281 29.5625 33.726562 C 29.523438 33.585938 29.464844 33.339844 29.425781 33.171875 C 29.382812 33.007812 29.3125 32.71875 29.269531 32.535156 C 29.066406 31.714844 29.089844 31.5625 29.421875 31.460938 C 30.359375 31.167969 32.046875 30.292969 33.144531 29.535156 L 33.484375 29.296875 L 38.710938 29.296875 C 41.578125 29.296875 43.941406 29.3125 43.957031 29.339844 C 43.992188 29.394531 43.75 30.371094 43.632812 30.667969 C 43.589844 30.769531 43.554688 30.886719 43.554688 30.929688 C 43.554688 30.972656 43.523438 31.089844 43.480469 31.191406 C 43.410156 31.363281 43.359375 31.496094 43.140625 32.074219 C 43.054688 32.320312 43.023438 32.390625 42.765625 32.980469 C 42.207031 34.257812 41.503906 35.460938 40.59375 36.6875 C 39.070312 38.761719 37.492188 40.292969 35.605469 41.539062 C 34.398438 42.335938 32.75 43.195312 31.496094 43.679688 C 31.375 43.722656 31.195312 43.792969 31.097656 43.839844 C 31 43.882812 30.886719 43.917969 30.84375 43.917969 C 30.800781 43.917969 30.683594 43.949219 30.585938 43.992188 C 30.347656 44.09375 29.960938 44.203125 28.816406 44.492188 C 27.574219 44.808594 25.832031 45.023438 24.539062 45.023438 C 23.390625 45.023438 21.738281 44.859375 20.867188 44.660156 C 20.683594 44.613281 20.476562 44.582031 20.410156 44.582031 C 20.347656 44.582031 20.167969 44.546875 20.015625 44.503906 C 19.863281 44.457031 19.578125 44.382812 19.382812 44.332031 C 18.828125 44.183594 18.082031 43.945312 17.585938 43.75 C 17.421875 43.683594 17.226562 43.613281 17.148438 43.582031 C 16.480469 43.363281 14.613281 42.441406 13.992188 42.035156 C 13.949219 42 13.863281 41.949219 13.800781 41.921875 C 13.742188 41.890625 13.628906 41.824219 13.546875 41.765625 C 13.46875 41.71875 13.285156 41.601562 13.136719 41.511719 C 12.621094 41.191406 11.710938 40.515625 11.738281 40.472656 C 11.753906 40.449219 12.777344 40.425781 14.015625 40.425781 C 15.25 40.425781 16.273438 40.410156 16.296875 40.394531 C 16.3125 40.378906 16.25 40.214844 16.164062 40.039062 L 16.007812 39.722656 L 16.007812 36.8125 L 16.46875 36.183594 C 16.726562 35.835938 16.933594 35.519531 16.933594 35.472656 C 16.933594 35.398438 16.703125 35.386719 14.960938 35.398438 L 12.984375 35.414062 L 12.984375 37.078125 L 13.558594 37.105469 L 14.128906 37.132812 L 14.144531 37.742188 C 14.167969 38.582031 14.238281 38.542969 12.8125 38.542969 C 11.570312 38.542969 11.457031 38.515625 11.300781 38.191406 C 11.226562 38.023438 11.214844 37.726562 11.214844 35.804688 C 11.214844 33.527344 11.214844 33.5 11.449219 33.238281 C 11.558594 33.121094 11.585938 33.117188 12.703125 33.117188 L 13.839844 33.117188 L 13.996094 33.289062 C 14.128906 33.433594 14.15625 33.503906 14.167969 33.824219 L 14.183594 34.191406 L 14.402344 34.234375 C 14.515625 34.261719 14.90625 34.273438 15.273438 34.269531 L 15.925781 34.253906 L 15.941406 33.394531 C 15.953125 32.679688 15.941406 32.496094 15.859375 32.3125 C 15.703125 31.941406 15.429688 31.636719 15.09375 31.472656 L 14.78125 31.316406 L 12.765625 31.316406 C 10.988281 31.316406 10.726562 31.328125 10.492188 31.417969 C 10 31.59375 9.71875 31.847656 9.511719 32.285156 C 9.398438 32.53125 9.390625 32.589844 9.375 35.371094 C 9.363281 37.011719 9.335938 38.210938 9.308594 38.210938 C 9.253906 38.210938 8.761719 37.640625 8.378906 37.132812 C 8.117188 36.789062 7.296875 35.566406 7.296875 35.527344 C 7.296875 35.515625 7.226562 35.398438 7.136719 35.265625 C 6.886719 34.878906 6.730469 34.578125 6.261719 33.617188 C 6.015625 33.113281 5.792969 32.652344 5.761719 32.597656 C 5.726562 32.535156 5.683594 32.425781 5.664062 32.347656 C 5.636719 32.269531 5.5625 32.066406 5.5 31.898438 C 5.335938 31.460938 5.042969 30.546875 4.933594 30.125 C 4.753906 29.441406 4.742188 29.390625 4.769531 29.339844 C 4.785156 29.316406 7.125 29.296875 9.96875 29.296875 C 14.265625 29.296875 15.15625 29.308594 15.261719 29.375 Z M 20.355469 33.519531 C 20.617188 34.074219 20.808594 34.386719 21.28125 35.027344 L 21.695312 35.582031 L 21.679688 36.964844 C 21.65625 38.3125 21.65625 38.355469 21.542969 38.445312 C 21.363281 38.589844 19.851562 38.589844 19.664062 38.445312 L 19.546875 38.351562 L 19.554688 35.859375 L 19.574219 33.371094 L 19.789062 33.246094 C 19.910156 33.179688 20.046875 33.121094 20.089844 33.121094 C 20.140625 33.121094 20.253906 33.292969 20.355469 33.519531 Z M 28.113281 35.996094 C 28.164062 36.222656 28.246094 36.5625 28.285156 36.746094 C 28.328125 36.925781 28.371094 37.148438 28.375 37.242188 L 28.394531 37.410156 L 27.933594 37.425781 C 27.683594 37.4375 27.449219 37.414062 27.421875 37.386719 C 27.390625 37.355469 27.402344 37.238281 27.457031 37.066406 C 27.503906 36.921875 27.582031 36.648438 27.636719 36.46875 C 27.683594 36.285156 27.765625 36.023438 27.808594 35.886719 C 27.855469 35.746094 27.898438 35.605469 27.910156 35.558594 C 27.953125 35.425781 28.015625 35.566406 28.113281 35.996094 Z M 28.113281 35.996094 "/>
<path style=" stroke:none;fill-rule:nonzero;fill:rgb(0%,0%,0%);fill-opacity:1;" d="M 17.914062 7.546875 C 17.738281 7.636719 17.6875 8.035156 17.835938 8.203125 C 18.054688 8.445312 18.527344 8.230469 18.527344 7.890625 C 18.527344 7.609375 18.171875 7.410156 17.914062 7.546875 Z M 17.914062 7.546875 "/>
<path style=" stroke:none;fill-rule:nonzero;fill:rgb(0%,0%,0%);fill-opacity:1;" d="M 30.304688 7.59375 C 30.011719 7.824219 30.207031 8.308594 30.597656 8.308594 C 30.792969 8.308594 30.980469 8.097656 30.980469 7.875 C 30.980469 7.515625 30.597656 7.355469 30.304688 7.59375 Z M 30.304688 7.59375 "/>
<path style=" stroke:none;fill-rule:nonzero;fill:rgb(0%,0%,0%);fill-opacity:1;" d="M 15.882812 8.628906 C 15.757812 8.773438 15.761719 9.148438 15.886719 9.265625 C 16.050781 9.414062 16.359375 9.386719 16.492188 9.214844 C 16.726562 8.917969 16.546875 8.527344 16.175781 8.527344 C 16.042969 8.527344 15.9375 8.566406 15.882812 8.628906 Z M 15.882812 8.628906 "/>
<path style=" stroke:none;fill-rule:nonzero;fill:rgb(0%,0%,0%);fill-opacity:1;" d="M 32.214844 8.628906 C 31.957031 8.917969 32.117188 9.359375 32.476562 9.359375 C 32.617188 9.359375 32.6875 9.320312 32.769531 9.199219 C 32.835938 9.109375 32.882812 8.992188 32.882812 8.945312 C 32.882812 8.832031 32.78125 8.628906 32.699219 8.574219 C 32.585938 8.496094 32.300781 8.527344 32.214844 8.628906 Z M 32.214844 8.628906 "/>
<path style=" stroke:none;fill-rule:nonzero;fill:rgb(0%,0%,0%);fill-opacity:1;" d="M 13.949219 9.820312 C 13.796875 9.980469 13.789062 10.300781 13.925781 10.429688 C 14.171875 10.65625 14.644531 10.449219 14.644531 10.125 C 14.644531 9.746094 14.195312 9.554688 13.949219 9.820312 Z M 13.949219 9.820312 "/>
<path style=" stroke:none;fill-rule:nonzero;fill:rgb(0%,0%,0%);fill-opacity:1;" d="M 34.175781 9.785156 C 34.050781 9.929688 34.011719 10.164062 34.085938 10.3125 C 34.175781 10.488281 34.238281 10.523438 34.472656 10.523438 C 34.625 10.523438 34.703125 10.488281 34.785156 10.378906 C 35.019531 10.078125 34.839844 9.691406 34.46875 9.691406 C 34.34375 9.691406 34.230469 9.730469 34.175781 9.785156 Z M 34.175781 9.785156 "/>
<path style=" stroke:none;fill-rule:nonzero;fill:rgb(0%,0%,0%);fill-opacity:1;" d="M 11.734375 11.503906 C 11.546875 11.546875 11.488281 11.683594 11.488281 12.074219 C 11.488281 12.285156 11.460938 12.464844 11.421875 12.503906 C 11.320312 12.609375 11.445312 12.710938 11.585938 12.632812 C 11.734375 12.554688 12.140625 12.074219 12.273438 11.828125 C 12.414062 11.558594 12.363281 11.464844 12.074219 11.46875 C 11.945312 11.476562 11.792969 11.484375 11.734375 11.503906 Z M 11.734375 11.503906 "/>
<path style=" stroke:none;fill-rule:nonzero;fill:rgb(0%,0%,0%);fill-opacity:1;" d="M 36.46875 11.503906 C 36.308594 11.542969 36.351562 11.789062 36.554688 12.039062 C 37.210938 12.847656 37.257812 12.847656 37.207031 12.082031 C 37.175781 11.625 37.160156 11.570312 37.054688 11.546875 C 36.808594 11.496094 36.554688 11.480469 36.46875 11.503906 Z M 36.46875 11.503906 "/>
<path style=" stroke:none;fill-rule:nonzero;fill:rgb(0%,0%,0%);fill-opacity:1;" d="M 24.0625 8.679688 C 23.910156 8.738281 23.796875 8.945312 23.792969 9.152344 C 23.792969 9.589844 24.332031 9.851562 24.65625 9.582031 C 24.746094 9.503906 24.792969 9.390625 24.808594 9.222656 C 24.835938 9.003906 24.820312 8.960938 24.675781 8.804688 C 24.511719 8.644531 24.28125 8.59375 24.0625 8.679688 Z M 24.0625 8.679688 "/>
<path style=" stroke:none;fill-rule:nonzero;fill:rgb(0%,0%,0%);fill-opacity:1;" d="M 18.074219 17.394531 C 18.074219 17.621094 18.363281 18.203125 18.609375 18.457031 C 18.859375 18.71875 19.4375 19.015625 19.855469 19.105469 C 20.03125 19.144531 20.363281 19.234375 20.601562 19.3125 C 20.835938 19.382812 21.042969 19.433594 21.054688 19.417969 C 21.136719 19.332031 20.78125 18.800781 20.339844 18.359375 C 19.84375 17.859375 19.554688 17.671875 18.96875 17.464844 C 18.722656 17.382812 18.15625 17.222656 18.101562 17.222656 C 18.085938 17.222656 18.074219 17.300781 18.074219 17.394531 Z M 18.074219 17.394531 "/>
<path style=" stroke:none;fill-rule:nonzero;fill:rgb(0%,0%,0%);fill-opacity:1;" d="M 30.089844 17.339844 C 29.265625 17.578125 28.746094 17.867188 28.265625 18.371094 C 27.96875 18.683594 27.570312 19.34375 27.625 19.433594 C 27.648438 19.460938 27.863281 19.417969 28.136719 19.328125 C 28.398438 19.246094 28.757812 19.128906 28.9375 19.074219 C 29.390625 18.933594 29.839844 18.652344 30.101562 18.351562 C 30.347656 18.066406 30.675781 17.417969 30.628906 17.300781 C 30.59375 17.207031 30.554688 17.207031 30.089844 17.339844 Z M 30.089844 17.339844 "/>
<path style=" stroke:none;fill-rule:nonzero;fill:rgb(0%,0%,0%);fill-opacity:1;" d="M 22.976562 25.46875 C 22.976562 25.960938 22.96875 25.949219 23.546875 26.320312 L 23.820312 26.5 L 23.835938 26.890625 C 23.847656 27.164062 23.832031 27.300781 23.78125 27.339844 C 23.730469 27.378906 23.535156 27.386719 23.191406 27.359375 C 22.910156 27.328125 22.660156 27.324219 22.644531 27.335938 C 22.519531 27.414062 22.96875 27.988281 23.296875 28.15625 C 23.890625 28.472656 24.378906 28.539062 24.925781 28.375 C 25.257812 28.277344 25.703125 28.011719 25.898438 27.796875 C 26.03125 27.652344 26.144531 27.386719 26.09375 27.339844 C 26.078125 27.324219 25.8125 27.324219 25.5 27.339844 C 24.808594 27.378906 24.773438 27.359375 24.773438 26.921875 C 24.773438 26.75 24.792969 26.582031 24.816406 26.550781 C 24.835938 26.515625 24.980469 26.421875 25.132812 26.34375 C 25.285156 26.265625 25.484375 26.132812 25.582031 26.054688 C 25.746094 25.914062 25.753906 25.890625 25.753906 25.503906 C 25.753906 25.269531 25.726562 25.074219 25.691406 25.054688 C 25.621094 25.007812 24.945312 25.320312 24.625 25.542969 C 24.351562 25.722656 24.289062 25.730469 24.101562 25.585938 C 23.945312 25.457031 23.117188 25.03125 23.03125 25.03125 C 22.996094 25.03125 22.976562 25.214844 22.976562 25.46875 Z M 22.976562 25.46875 "/>
<path style=" stroke:none;fill-rule:nonzero;fill:rgb(0%,0%,0%);fill-opacity:1;" d="M 31.511719 31.328125 C 31.5 31.355469 31.5 32.003906 31.511719 32.773438 L 31.527344 34.175781 L 32.136719 34.160156 L 32.75 34.140625 L 32.777344 33.644531 L 32.804688 33.144531 L 34.382812 33.144531 L 34.398438 36.3125 L 34.410156 39.480469 L 34.21875 39.8125 C 34.109375 40 33.960938 40.1875 33.890625 40.238281 C 33.816406 40.289062 33.773438 40.351562 33.789062 40.378906 C 33.804688 40.40625 34.5 40.425781 35.339844 40.425781 C 36.953125 40.425781 37.011719 40.417969 36.75 40.179688 C 36.691406 40.121094 36.570312 39.960938 36.484375 39.824219 L 36.320312 39.570312 L 36.28125 36.394531 C 36.25 33.691406 36.253906 33.210938 36.320312 33.167969 C 36.363281 33.140625 36.707031 33.117188 37.085938 33.117188 C 37.886719 33.117188 37.828125 33.066406 37.851562 33.753906 L 37.867188 34.140625 L 38.902344 34.140625 L 38.902344 31.316406 L 35.214844 31.300781 C 33.1875 31.296875 31.523438 31.304688 31.511719 31.328125 Z M 31.511719 31.328125 "/>
<path style=" stroke:none;fill-rule:nonzero;fill:rgb(0%,0%,0%);fill-opacity:1;" d="M 23.167969 42.394531 C 23.007812 42.546875 22.992188 42.753906 23.117188 42.945312 C 23.226562 43.117188 23.5625 43.140625 23.699219 42.984375 C 23.835938 42.832031 23.820312 42.519531 23.667969 42.375 C 23.503906 42.214844 23.328125 42.222656 23.167969 42.394531 Z M 23.167969 42.394531 "/>
<path style=" stroke:none;fill-rule:nonzero;fill:rgb(0%,0%,0%);fill-opacity:1;" d="M 24.890625 42.382812 C 24.738281 42.542969 24.730469 42.863281 24.871094 42.992188 C 25.007812 43.113281 25.332031 43.113281 25.4375 42.984375 C 25.589844 42.8125 25.601562 42.671875 25.464844 42.472656 C 25.304688 42.226562 25.066406 42.1875 24.890625 42.382812 Z M 24.890625 42.382812 "/>
</g>
</svg>
