<?xml version="1.0" standalone="no"?>
<!DOCTYPE svg PUBLIC "-//W3C//DTD SVG 20010904//EN"
 "http://www.w3.org/TR/2001/REC-SVG-20010904/DTD/svg10.dtd">
<svg version="1.0" xmlns="http://www.w3.org/2000/svg"
 width="1280.000000pt" height="524.000000pt" viewBox="0 0 1280.000000 524.000000"
 preserveAspectRatio="xMidYMid meet">
<metadata>
Created by potrace 1.15, written by Peter Selinger 2001-2017
</metadata>
<g transform="translate(0.000000,524.000000) scale(0.100000,-0.100000)"
fill="#000000" stroke="none">
<path d="M11117 4283 c-4 -3 -7 -67 -7 -142 l0 -136 -93 -22 c-116 -28 -272
-105 -366 -179 -141 -113 -258 -297 -303 -479 -30 -122 -29 -313 1 -430 57
-217 186 -391 388 -525 43 -28 222 -123 399 -210 396 -196 461 -242 516 -367
30 -69 23 -188 -17 -261 -55 -101 -176 -183 -292 -198 l-53 -7 0 290 0 290
-80 37 c-43 20 -84 36 -90 36 -7 0 -10 -107 -10 -325 l0 -325 -48 0 c-59 0
-176 32 -245 66 -106 53 -112 78 -32 129 138 88 182 270 103 424 -85 167 -282
229 -448 140 -117 -62 -181 -166 -188 -304 -17 -328 283 -599 727 -656 47 -6
96 -13 109 -15 22 -4 22 -7 22 -159 l0 -155 90 0 90 0 0 155 c0 153 0 155 23
159 330 58 473 117 619 254 119 113 195 236 245 399 24 81 27 102 27 258 0
155 -2 179 -27 269 -52 189 -149 333 -298 446 -63 47 -165 103 -399 217 -173
85 -350 176 -394 201 -99 59 -177 142 -206 219 -58 153 21 325 174 382 l51 19
3 -237 2 -238 86 -46 c46 -26 87 -47 89 -47 3 0 5 131 5 291 l0 292 63 -6 c78
-7 125 -21 167 -50 58 -39 59 -47 7 -136 -26 -44 -52 -104 -58 -133 -23 -105
6 -211 77 -282 151 -151 428 -110 527 79 32 62 36 209 7 294 -80 238 -331 398
-691 442 l-99 12 0 139 0 138 -83 0 c-46 0 -87 -3 -90 -7z"/>
<path d="M5143 4197 c-142 -36 -103 -51 119 -46 123 3 158 7 177 21 l24 17
-38 15 c-52 22 -180 19 -282 -7z"/>
<path d="M1820 4062 l0 -147 -92 -23 c-240 -60 -449 -221 -519 -399 -33 -83
-33 -243 0 -325 76 -193 265 -349 546 -450 l65 -23 0 -522 0 -523 -23 0 c-84
0 -252 76 -321 146 -40 41 -95 138 -84 149 2 3 28 9 57 15 77 14 119 38 149
83 23 34 27 51 27 111 -1 131 -49 216 -141 246 -59 20 -172 8 -239 -25 -94
-46 -137 -131 -137 -274 0 -97 15 -156 64 -260 86 -181 250 -297 560 -397 l88
-28 2 -165 3 -166 105 0 105 0 3 163 2 162 145 0 145 0 0 -165 0 -165 105 0
105 0 0 169 c0 153 2 170 18 175 9 3 49 12 89 20 117 25 284 83 348 121 103
62 213 189 258 297 58 140 50 344 -19 482 -91 182 -322 357 -604 456 -36 13
-71 28 -77 33 -10 7 -13 105 -13 427 0 229 3 419 6 422 9 10 144 -30 212 -63
43 -21 73 -44 97 -76 34 -45 44 -73 26 -73 -5 0 -27 -18 -50 -40 -157 -153
-42 -393 189 -394 235 0 305 284 136 549 -53 82 -121 141 -219 190 -94 48
-273 109 -349 120 l-48 7 0 154 0 154 -105 0 -105 0 0 -140 0 -140 -145 0
-145 0 0 140 0 140 -110 0 -110 0 0 -148z m493 -337 c16 -7 17 -36 17 -412 0
-380 -1 -404 -17 -399 -10 3 -75 22 -145 42 l-128 37 0 368 0 368 23 5 c32 7
229 0 250 -9z m-493 -346 l0 -311 -27 6 c-40 10 -127 72 -158 112 -87 115 -75
292 28 391 34 33 144 113 154 113 2 0 3 -140 3 -311z m388 -796 l122 -45 0
-464 0 -464 -145 0 -145 0 0 516 0 515 23 -7 c12 -4 77 -27 145 -51z m421
-176 c30 -18 85 -61 121 -97 52 -50 72 -79 89 -125 46 -121 30 -295 -35 -388
-35 -49 -106 -105 -180 -141 -92 -45 -84 -80 -84 385 0 466 -10 425 89 366z"/>
<path d="M5224 4127 l-132 -10 5 -97 c3 -53 3 -122 -1 -153 l-7 -56 -57 -12
c-95 -19 -230 -67 -312 -110 -220 -114 -308 -329 -270 -664 30 -262 128 -429
302 -510 91 -43 73 -45 -33 -4 -56 21 -83 38 -89 52 -9 23 -180 230 -186 225
-2 -2 6 -37 16 -78 15 -58 25 -79 47 -95 44 -30 92 -86 111 -127 20 -44 16
-43 281 -57 101 -6 186 -13 189 -16 9 -9 15 -347 7 -420 l-7 -66 -36 7 c-92
16 -129 60 -145 173 l-12 83 -185 -92 c-101 -51 -200 -98 -220 -105 -32 -11
-35 -16 -38 -53 -7 -98 37 -228 103 -301 21 -22 36 -41 34 -41 -16 0 -113 81
-115 96 -1 11 -11 62 -23 114 -11 52 -21 105 -21 118 0 25 -3 26 -29 12 -17
-8 -17 -15 -6 -77 7 -44 23 -85 43 -117 34 -53 35 -71 2 -41 -33 30 -22 4 38
-84 l57 -84 115 -39 c169 -57 284 -87 367 -94 l73 -7 0 -93 0 -94 185 0 185 0
0 78 0 79 220 18 c121 11 220 22 220 25 0 3 -14 25 -31 48 -21 28 -37 41 -48
38 -75 -22 -331 -86 -345 -86 -12 0 -16 6 -14 23 3 20 20 27 178 68 315 82
335 92 379 182 43 88 61 214 61 428 0 308 -47 480 -166 608 -89 97 -210 148
-386 166 l-67 6 -8 47 c-10 60 -10 283 0 345 9 52 19 57 66 32 33 -17 71 -87
71 -131 0 -17 3 -34 6 -37 4 -4 105 43 225 104 159 80 219 115 219 128 0 59
-68 214 -117 267 -46 50 -70 60 -218 99 -257 67 -245 63 -245 96 0 16 3 29 8
29 4 0 77 -18 162 -39 85 -21 171 -41 190 -45 33 -5 34 -5 15 10 -70 54 -243
114 -332 114 l-43 0 0 115 0 115 -52 -2 c-29 -1 -112 -6 -184 -11z m-134 -822
c0 -21 -5 -25 -29 -25 -17 0 -44 -13 -67 -31 l-39 -32 35 7 c106 22 106 22
113 -20 10 -61 8 -188 -4 -244 l-11 -52 -46 7 c-110 16 -136 54 -136 200 -1
82 3 107 20 140 24 46 72 75 127 75 33 0 37 -3 37 -25z m-193 -841 c-3 -3 -12
-4 -19 -1 -8 3 -5 6 6 6 11 1 17 -2 13 -5z m60 -10 c-3 -3 -12 -4 -19 -1 -8 3
-5 6 6 6 11 1 17 -2 13 -5z m133 -15 c0 -7 -19 -8 -57 -3 -78 9 -79 14 -5 14
38 0 62 -4 62 -11z m440 -48 c42 -29 73 -104 78 -191 8 -134 -39 -238 -115
-259 l-33 -10 0 195 c0 107 2 194 4 194 2 0 9 -33 16 -72 33 -205 60 -291 60
-197 1 24 7 73 15 109 28 123 31 110 -35 163 -45 36 -60 54 -60 73 0 22 3 24
23 19 12 -4 33 -14 47 -24z m-604 -905 c124 -25 160 -36 162 -49 5 -23 -5 -22
-159 22 -114 33 -251 82 -183 66 12 -3 93 -20 180 -39z"/>
<path d="M8110 4094 c-65 -10 -100 -26 -121 -55 l-22 -31 22 -38 c17 -31 21
-54 21 -128 0 -60 -4 -93 -13 -100 -7 -6 -37 -20 -68 -31 -30 -12 -68 -35 -84
-51 -24 -25 -35 -29 -57 -24 -23 5 -49 -7 -142 -63 l-113 -68 5 -37 c4 -34 2
-39 -22 -48 -15 -5 -38 -10 -51 -10 -36 0 -48 -57 -20 -97 27 -39 -9 -93 -62
-93 -32 0 -36 -4 -64 -65 -29 -60 -30 -68 -20 -115 6 -28 11 -73 11 -99 0 -48
0 -48 73 -103 39 -31 101 -70 136 -88 56 -28 66 -30 93 -19 26 11 32 9 68 -20
27 -21 50 -31 74 -31 68 0 134 -20 151 -46 9 -14 26 -30 39 -35 34 -16 45 -67
44 -214 0 -75 5 -149 12 -175 9 -33 10 -88 5 -205 -4 -88 -7 -167 -7 -175 1
-8 -4 -84 -11 -169 -14 -190 -22 -206 -101 -196 -31 3 -89 25 -151 55 -55 27
-126 59 -158 71 -31 11 -70 31 -86 44 -15 14 -40 29 -55 35 -14 5 -30 20 -36
34 -5 13 -27 39 -50 57 -23 19 -53 43 -67 54 -14 12 -32 43 -42 70 -13 41 -24
54 -58 73 -24 13 -47 21 -52 18 -5 -4 -12 -25 -16 -49 -4 -23 -13 -49 -19 -57
-7 -8 -23 -52 -36 -98 l-23 -83 59 -60 c32 -33 82 -78 110 -100 45 -35 55 -38
78 -29 42 16 101 12 125 -7 11 -10 27 -36 34 -58 12 -34 19 -41 50 -47 20 -4
78 -24 129 -45 86 -34 101 -37 196 -38 l103 0 40 -42 c43 -46 46 -61 25 -121
-8 -22 -17 -66 -21 -98 -3 -33 -8 -73 -11 -91 -4 -30 -1 -34 38 -54 73 -37
153 -26 176 26 7 14 8 84 5 192 -7 213 -6 218 51 226 24 4 88 20 142 38 83 26
109 40 159 83 33 29 107 88 165 133 81 62 125 105 186 185 45 56 87 114 94
127 28 53 60 168 60 213 0 43 2 48 22 45 30 -3 40 48 28 143 -10 73 -19 90
-51 90 -48 0 -66 80 -23 103 l25 13 -45 62 c-25 34 -71 81 -102 106 -78 61
-227 134 -289 142 -28 4 -70 19 -95 34 -25 15 -58 31 -75 34 -39 8 -48 -6 -75
-124 -12 -50 -24 -89 -27 -86 -12 12 -33 125 -33 179 0 54 -2 58 -27 67 -16 6
-45 18 -65 27 l-38 16 0 149 c0 135 -2 153 -22 187 l-22 38 27 32 c25 30 26
35 20 118 l-6 86 39 -7 c21 -3 75 -13 119 -21 44 -8 94 -15 110 -15 23 0 35
-8 53 -35 29 -46 50 -45 126 6 77 53 104 77 122 112 13 25 13 28 -3 33 -37 11
-59 31 -69 61 -3 11 -204 35 -307 36 l-129 2 -30 34 -31 34 7 107 c7 113 1
171 -18 169 -6 -1 -22 -3 -36 -5z m-118 -559 c10 -4 12 -23 7 -88 -7 -78 -6
-83 17 -102 29 -25 30 -50 4 -93 -19 -31 -19 -35 -4 -64 22 -42 20 -98 -6
-148 l-21 -42 -47 7 c-100 14 -164 36 -187 63 -12 15 -52 43 -89 62 -36 19
-68 42 -71 51 -3 9 4 41 15 72 25 68 158 214 234 258 49 27 112 38 148 24z
m360 -1016 l50 -20 50 33 c49 31 51 31 65 12 21 -27 43 -80 43 -102 0 -12 11
-24 29 -31 23 -10 32 -24 46 -72 16 -52 24 -63 65 -89 65 -42 79 -60 73 -92
-5 -24 -10 -28 -39 -28 -46 0 -55 -22 -52 -127 2 -86 1 -90 -41 -178 -55 -113
-131 -191 -253 -258 -47 -27 -94 -57 -104 -68 -21 -23 -105 -27 -123 -6 -6 8
-9 16 -6 19 3 3 10 72 15 154 l10 149 -35 31 c-35 31 -44 57 -25 69 6 4 19 23
29 43 16 32 18 53 14 157 -3 78 -9 123 -18 130 -6 6 -19 24 -28 41 -16 30 -15
31 8 42 24 11 25 15 25 110 0 54 5 103 10 108 14 14 129 -2 192 -27z"/>
<path d="M4810 3860 c-213 -45 -346 -133 -419 -277 -43 -86 -54 -154 -48 -279
4 -93 11 -126 46 -229 22 -66 39 -108 36 -94 -34 191 -33 225 22 445 l47 192
55 17 c89 28 172 72 233 124 41 35 68 50 100 55 149 23 166 28 171 47 5 18 -1
19 -76 18 -45 0 -120 -9 -167 -19z"/>
<path d="M5995 3628 c51 -69 58 -85 71 -159 8 -45 16 -85 19 -87 3 -3 5 33 5
80 l0 85 -76 79 -75 79 56 -77z"/>
<path d="M5880 3230 c-74 -59 -90 -67 -230 -104 l-55 -14 41 -1 c52 -1 90 12
262 92 75 35 148 69 162 75 22 9 16 11 -40 11 -65 1 -65 1 -140 -59z"/>
<path d="M5600 2928 c3 -3 40 -20 83 -38 105 -43 205 -110 307 -206 46 -43 74
-65 62 -49 -79 106 -149 207 -163 232 -16 29 -19 30 -130 42 -63 7 -125 15
-139 18 -14 3 -23 3 -20 1z"/>
<path d="M6096 2507 c4 -12 13 -42 20 -67 l13 -45 0 61 c1 54 -2 62 -19 67
-18 5 -20 2 -14 -16z"/>
<path d="M4670 2184 c-108 -23 -117 -27 -158 -67 -24 -23 -58 -59 -75 -81
l-31 -39 43 27 c47 30 271 142 336 168 56 23 20 20 -115 -8z"/>
<path d="M6124 2082 c-6 -4 -21 -73 -33 -153 -11 -80 -28 -171 -36 -202 -17
-64 -65 -165 -102 -214 -27 -36 -20 -42 14 -14 27 23 193 426 193 469 0 45
-12 122 -19 122 -3 0 -11 -4 -17 -8z"/>
<path d="M5170 1106 c0 -3 26 -18 58 -32 46 -20 66 -24 107 -19 86 10 105 16
105 31 0 11 -22 14 -112 14 -62 0 -123 3 -135 6 -13 4 -23 4 -23 0z"/>
</g>
</svg>
